<?xml version="1.0" encoding="utf-8"?>
<!-- Generator: Adobe Illustrator 16.0.0, SVG Export Plug-In . SVG Version: 6.00 Build 0)  -->
<!DOCTYPE svg PUBLIC "-//W3C//DTD SVG 1.1//EN" "http://www.w3.org/Graphics/SVG/1.1/DTD/svg11.dtd">
<svg version="1.1" id="图层_1" xmlns="http://www.w3.org/2000/svg" xmlns:xlink="http://www.w3.org/1999/xlink" x="0px" y="0px"
	 width="605.945px" height="140.602px" viewBox="0 0 605.945 140.602" enable-background="new 0 0 605.945 140.602"
	 xml:space="preserve">
<g>
	<g>
		<path id="_x35_" fill="#FEFEFE" d="M319.688,106.057c-1.396,2.365-2.363,3.979-2.9,4.836c-0.538,0.86-0.968,1.506-1.185,2.043
			c-0.215,0.432-0.43,0.859-0.752,1.289c-0.431,0.752-0.858,1.612-1.183,2.475c-0.322,0.857-0.43,1.396-0.215,1.609
			c0.322,0.215,0.645,0,1.075-0.43c0.43-0.537,0.857-0.752,1.289-0.859c0.43,0,0.753-0.215,0.858-0.537
			c0.107-0.32,0.322-0.538,0.537-0.538c0.215-0.105,0.646-0.535,1.182-1.29c0.108-0.105,0.108-0.215,0.218-0.32
			c-0.433,2.043-0.646,4.084-0.753,6.232c-0.107,2.041-0.107,3.654-0.217,4.729c-0.106,1.075,0,2.147,0.107,3.332
			c0.107,1.182,0.322,1.826,0.537,2.041c0.431,0.538,0.753,0.431,0.968,0c0.107-0.215,0.43-0.537,1.182-0.859
			c0.218-0.105,0.218-0.537,0.108-1.182c-0.216-1.613-0.323-3.117-0.323-4.406c0.107-3.547,0.215-5.912,0.323-7.094
			c0.107-1.185,0.215-2.043,0.43-2.58c0.432-0.967,0.217-1.719-0.538-2.256c-0.105-0.108-0.215-0.108-0.32-0.108
			c0.215-0.322,0.431-0.645,0.753-1.075c0.322-0.43,0.537-0.857,0.857-1.182c0.217-0.322,0.537-0.752,0.97-1.396
			c0.32-0.646,0.43-1.075,0.32-1.398c-0.215-0.537-0.536-1.074-0.968-1.504c-0.43-0.43-0.857-0.646-1.289-0.646
			c-0.431,0-0.858,0.432-1.505,1.504L319.688,106.057z M329.359,111.646c-0.322,0.107-0.752,0.215-1.507,0.537
			c-0.752,0.323-1.61,0.538-2.577,0.86c-0.752,0.215-1.185,0.537-1.075,0.967c0.323,1.182,0.646,1.827,1.183,2.15
			c0.322,0.105,0.537,0.32,0.752,0.537c0.216,0.215,0.646,0.215,1.185,0.215c-0.322,0.645-0.752,1.719-1.29,3.225
			c-0.646,1.611-1.184,2.9-1.827,3.869c-0.537,0.967-1.289,2.686-2.042,4.943c-0.107,0.43-0.107,0.752,0,0.752
			c0.105,0.105,0.323,0,0.431-0.322c0.107-0.215,0.322-0.43,0.537-0.646c0.215-0.105,0.322-0.32,0.43-0.535
			c0.108-0.217,0.217-0.433,0.322-0.538c0.107-0.107,0.215-0.322,0.43-0.432c0.107-0.216,0.323-0.431,0.646-0.646
			c0.537-0.322,1.396-1.611,2.579-3.979c1.29-2.361,2.147-3.977,2.579-5.051l0.858-1.935l2.688-1.075l3.332-1.396
			c0.215-0.105,0.322-0.215,0.322-0.43s0-0.43,0.105-0.538c0.107-0.215,0.107-0.322,0.107-0.43c0-0.108,0-0.322,0-0.433
			c0-0.215-0.107-0.32-0.217-0.43c-0.106-0.106-0.215-0.215-0.32-0.322c-0.107-0.105-0.215-0.215-0.322-0.215
			c-0.106,0-0.215-0.105-0.43-0.215c-0.108-0.106-0.538-0.106-1.075,0.107l-2.042,0.536c0.322-0.968,0.752-1.825,1.183-2.578
			c0.322-0.646,0.107-1.29-0.431-1.937c-0.215-0.215-0.43-0.43-0.646-0.43s-0.321-0.107-0.431-0.215
			c-0.106-0.108-0.322-0.107-0.646-0.107c-0.322,0.107-0.537,0.215-0.752,0.537c-0.217,0.322-0.322,0.537-0.217,0.752
			c0.107,0.215,0.107,0.43-0.105,0.646l-1.72,4.299L329.359,111.646L329.359,111.646z M331.294,116.052
			c-0.215,0.108-0.322,0.538-0.322,1.075s-0.215,1.396-0.753,2.579c-0.43,1.183-0.752,2.687-0.752,4.515
			c-0.105,1.826,0.107,3.116,0.537,3.979c0.431,0.857,0.753,1.504,1.184,1.824c0.858,0.752,2.363,1.185,4.515,1.29
			c3.332,0.107,5.479-0.105,6.449-0.753c0.645-0.43,1.072-0.857,1.504-1.396c0.43-0.646,0.538-1.29,0.215-1.827
			c-0.107-0.538-0.43-0.86-0.967-1.185c-0.432-0.32-0.646-0.645-0.86-1.072c-0.107-0.432-0.215-0.967-0.322-1.397
			c-0.105-0.43-0.215-0.753-0.43-0.858c-0.215,0-0.43,0.321-0.43,0.968c0,0.646,0,1.61,0,2.794c0,0.215-0.432,0.43-1.075,0.753
			c-0.752,0.322-1.72,0.43-3.009,0.43c-2.474,0-3.869-0.43-4.301-1.075c-0.321-0.535-0.431-1.288-0.431-2.146
			c0-0.86,0.215-1.938,0.431-3.226c0.322-1.289,0.646-2.149,1.074-2.579c0.322-0.432,0.432-0.859,0.537-1.396
			c0.107-0.967-0.43-1.505-1.719-1.612c-0.431,0-0.753,0.107-1.075,0.217V116.052z M339.14,108.422
			c0.322,0.322,0.752,0.537,1.075,0.645c0.43,0.107,0.752,0.107,1.074-0.32c0.645-0.646,0.537-1.613-0.43-2.688
			c-0.322-0.322-0.86-0.537-1.612-0.645c-0.537-0.107-0.967-0.107-1.183,0.215c-0.217,0.322-0.217,0.752,0.106,1.182
			c0.322,0.646,0.646,1.075,0.967,1.506L339.14,108.422L339.14,108.422z"/>
		<path id="_x36_" fill="#FEFEFE" d="M362.999,120.352c0.107,1.396,0,2.901-0.215,4.621c-0.107,1.074-0.432,1.936-0.967,2.688
			c-0.646,0.968-1.29,1.825-2.26,2.579c-0.645,0.535-1.289,1.183-2.042,1.826c-0.43,0.432-0.645,0.752-0.645,0.859
			c0.105,0.107,0.322,0.107,0.752-0.107c0.323-0.215,0.86-0.43,1.612-0.645c0.753-0.323,1.29-0.538,1.827-0.753
			c0.43-0.215,0.858-0.538,1.396-0.86c0.537-0.32,1.182-0.967,1.827-1.934c0.43-0.753,0.858-1.721,1.074-2.902
			c0.105-0.857,0.215-1.719,0.215-2.688c0.105-1.074,0.105-1.721,0.105-2.041c0-0.215,0-0.432,0.108-0.646
			c0.106-0.323,0-0.646-0.216-1.075c-0.215-0.321-0.646-0.646-1.396-0.858c-0.538-0.215-0.968-0.215-1.183,0
			c-0.322,0.43-0.322,1.075-0.107,1.936H362.999z M367.405,103.478c-0.537,0.322-1.937,0.646-4.406,1.185
			c-2.364,0.537-3.977,0.752-4.729,0.645c-0.753-0.105-1.183,0-1.396,0.215c-0.107,0.107-0.322,0.537-0.537,1.184l-0.753,2.58
			c-0.215,0.857-0.859,3.01-1.935,6.446c-1.074,3.438-1.827,6.343-2.364,8.601c-0.537,2.256-0.967,3.869-1.184,4.729
			c-0.431,1.611-0.431,2.474-0.105,2.579c0.105,0,0.322-0.215,0.537-0.753c0.215-0.537,0.43-0.967,0.645-1.182
			c0.537-0.432,0.968-1.184,1.29-2.259c0.322-1.073,0.646-2.147,1.074-3.114c0.431-1.075,0.753-2.259,1.075-3.439
			c0.321-1.29,0.645-2.365,0.967-3.225l1.505-4.621c0.646-2.15,1.185-3.654,1.505-4.515c0.537,0,2.364-0.322,5.374-0.969
			c-0.323,0.107-0.431,0.537-0.431,0.969c0,0.536-0.107,1.073-0.322,1.825c-1.289,0.215-2.687,0.432-4.299,0.859
			c-0.967,0.216-1.29,0.646-1.183,1.184c0.106,0.646,0.321,1.184,0.536,1.396c0.646,0.537,1.184,0.752,1.612,0.537
			c0.215-0.107,0.537-0.215,0.967-0.322l1.397-0.215l-0.538,2.473c-0.215,0-0.322,0-0.537,0.107
			c-0.215-0.433-0.43-0.646-0.752-0.646s-0.646,0.107-0.86,0.433c-0.535,0.752-0.752,1.934-0.967,3.546
			c-0.105,2.899-0.105,4.729-0.105,5.589c0.105,0.752,0.215,1.504,0.43,2.147c0.215,0.646,0.537,0.97,0.859,0.97
			c0.968,0,1.505-0.646,1.505-1.938c-0.322-2.794-0.215-5.479,0.215-8.061c2.365-0.432,3.869-0.752,4.515-0.967
			c0.646-0.217,0.967-0.322,1.184-0.217c0.105,0.107,0.215,0.322,0.215,0.646c0.105,2.795,0.105,4.621,0.105,5.479
			c-0.105,0.86-0.215,1.29-0.537,1.397c-0.32,0.105-0.43,0.322-0.32,0.645c0.105,0.432,0.215,0.752,0.43,1.184
			c-0.322,0.105-0.537,0.215-0.967,0.32c-0.432,0.218-0.432,0.646,0,1.291c0.215,0.217,0.537,0.537,0.857,0.859
			c0.432,0.322,1.075,1.289,2.042,2.688c0.97,1.29,1.612,1.825,1.827,1.61c0.322-0.32,0.646-0.752,0.752-1.182
			c0.433-1.186,0.538-2.043,0.323-2.58c-0.105-0.322-0.323-0.646-0.753-0.967c-0.537-0.537-0.967-0.86-1.289-1.075
			c-0.105-0.107-0.215-0.107-0.323-0.215c0.646-0.646,1.075-1.72,1.185-3.331c0.105-0.646,0.105-1.398,0.105-2.258
			c0-0.86,0-1.611-0.105-2.149c0-0.646,0-1.075,0.105-1.505c0.107-0.43,0-0.859-0.215-1.182c-0.43-0.752-1.075-1.29-1.72-1.612
			c-0.322-0.216-0.646-0.108-1.074,0.215c-0.323,0.322-0.753,0.43-1.29,0.43s-1.827,0.107-3.762,0.433
			c0.43-0.646,0.857-1.186,1.075-1.613l0.645-1.074c1.827-0.43,3.762-0.645,5.696-0.645c0.322,0,0.645,0,0.857,0.105
			c0.537,0.215,1.075,0.107,1.612-0.43c0.107-0.107,0.215-0.322,0.322-0.43l0.215-0.646c0-0.215-0.215-0.646-0.859-1.29
			c-0.215-0.32-1.073-0.32-2.472-0.32c-1.396,0.105-2.473,0.215-3.225,0.32c0-0.105,0-0.215,0-0.32c0-0.107,0-0.322,0.105-0.432
			c0.107-0.43-0.215-0.857-1.183-1.396c-0.322-0.217-0.646-0.322-0.967-0.322l2.042-0.538c0.645-0.322,1.29-0.43,1.72-0.537
			c0.537,0,0.967-0.322,1.29-0.752c0.322-0.43,0.215-0.967-0.432-1.719c-0.431-0.433-0.858-0.753-1.073-0.86
			c-0.322,0-0.646,0.107-0.86,0.322L367.405,103.478z"/>
		<path id="_x37_" fill="#FEFEFE" d="M393.092,110.141l5.052-0.857c0.322-0.107,0.646-0.107,1.074-0.217
			c0.216-0.105,0.433-0.32,0.646-0.752c0.214-0.431,0.32-0.969,0.105-1.506s-0.645-0.857-1.183-1.074
			c-0.215,0-0.43-0.105-0.752-0.32c-0.43-0.107-0.752-0.107-0.86,0c-0.215,0.215-0.645,0.32-1.182,0.43c0-0.107,0-0.107,0-0.215
			c0-0.43-0.215-0.967-0.537-1.72c-0.323-0.753-0.753-1.075-1.29-1.29c-0.537-0.107-0.859,0-1.075,0.43l-1.935,3.547
			c-0.215,0-0.537,0-1.184,0.107c-0.537,0.105-1.183,0.105-1.826,0.215c-0.646,0-0.969,0.105-1.184,0.322
			c-0.322,0.536-0.215,1.074,0.215,1.826l0.538,0.752c0.215,0.217,0.431,0.432,0.646,0.537c0.215,0.107,0.43,0.215,0.537,0.322
			c-0.859,1.505-1.612,3.01-2.364,4.514c-0.537,1.076-1.185,1.828-2.042,2.475c-0.432,0.215-0.752,0.537-0.752,0.967
			s0.215,0.86,0.645,1.396c0.431,0.538,0.859,0.86,1.185,0.86c0.32,0,0.967,0,1.719-0.215c1.612-0.215,2.902-0.43,3.762-0.537
			c0.86-0.108,1.505-0.216,2.042-0.323v3.011c-0.43,0-0.967,0.105-1.504,0.215c-3.762,0.538-6.234,0.858-7.201,1.184
			c-1.075,0.215-1.827,0.43-2.472,0.646c-0.646,0.215-0.968,0.43-1.075,0.752c-0.105,0.32,0,0.857,0.43,1.505
			c0.433,0.752,0.753,1.183,1.185,1.29c0.215,0.105,0.857,0,1.827-0.215c2.042-0.646,4.514-1.186,7.416-1.723
			c0.43-0.105,0.857-0.105,1.396-0.215c0,5.052,0.216,7.631,0.646,7.738c0.215,0,0.43-0.215,0.535-0.752
			c0.107-0.432,0.432-0.859,0.859-1.184c0.431-0.321,0.753-0.753,0.968-1.291c0.217-0.535,0.322-1.289,0.322-2.361
			c0-1.075,0-1.938,0.107-2.58c1.396-0.215,3.115-0.322,5.052-0.432c1.935-0.106,3.224,0,3.762,0.217
			c0.537,0.32,0.967,0.32,1.289,0.32c0.322-0.105,0.646-0.215,1.075-0.43c0.105-0.107,0.322-0.43,0.322-1.074
			c0.105-1.183-0.322-1.936-1.397-2.148c-0.645-0.107-1.182-0.322-1.396-0.537c-0.323-0.215-0.538-0.322-0.646-0.215
			c-0.108,0.105-0.43,0.215-0.859,0.32c-0.429,0.107-1.396,0.216-2.9,0.322c-1.504,0.107-2.901,0.215-4.191,0.43v-2.041
			c0-0.43,0-0.753,0-1.073c0.646-0.107,1.397-0.217,2.474-0.323c1.073-0.107,2.148-0.215,3.225-0.43
			c0.537-0.107,0.86-0.217,0.86-0.646s-0.108-0.967-0.323-1.504c-0.215-0.538-0.43-0.86-0.646-0.968
			c-0.215-0.108-0.645-0.107-1.29,0c-0.645,0.105-1.72,0.32-3.224,0.538c-0.43,0-0.753,0.105-1.075,0.215
			c0-0.433,0.107-0.753,0.215-1.186c0.107-0.752,0.107-1.289-0.105-1.609c-0.967-1.289-1.827-1.827-2.579-1.505
			c-0.752,0.321-0.968,1.29-0.859,2.794c0,0.538,0,1.291,0.107,2.148c-0.753,0.107-1.397,0.215-2.15,0.432
			c-0.967,0.105-1.504,0.105-1.719-0.217c-0.107-0.215,0-0.645,0.43-1.396l3.439-5.374L393.092,110.141z"/>
		<path id="_x38_" fill="#FEFEFE" d="M423.293,127.66c-0.107-6.558-0.107-11.284,0.107-14.294c0.214-3.012,0.32-4.836,0.535-5.481
			c0.217-0.645,0.217-1.075,0.107-1.397c-0.322-0.752-0.967-1.396-1.935-1.824c-0.322-0.107-0.537-0.107-0.752,0.105
			c-0.537,0.537-0.97,0.859-1.397,0.859c-0.43,0.105-0.752,0.105-1.075,0.105h-0.752c-0.215-0.215-0.43-0.43-0.752-0.535
			c-0.322-0.107-0.753,0.105-1.183,0.752c-0.322,0.43-0.432,1.182-0.322,2.147s0,2.042-0.107,3.226
			c-0.215,1.184-0.32,2.258-0.43,3.115c-0.105,0.97-0.215,1.828-0.538,2.795c-0.215,0.859-0.537,2.474-0.967,4.729
			c-0.43,2.258-0.752,4.084-1.183,5.374c-0.754,2.579-0.969,3.977-0.537,4.084c0.32,0.105,0.537-0.215,0.858-0.968
			c0.215-0.752,0.537-1.396,0.859-2.041l0.859-1.938c0.431-0.857,0.858-2.256,1.396-4.189c0.322,0,1.075-0.107,2.149-0.537
			c1.073-0.432,1.825-0.646,2.042-0.752c0,2.472,0,4.299,0,5.373c0,1.073,0,1.721-0.107,1.828c-0.322,0.535-0.859,0.645-1.827,0.43
			c-0.322-0.107-0.43,0-0.537,0.105c-0.105,0.107,0,0.432,0.322,0.752c0.322,0.322,0.43,0.646,0.537,0.859
			c0,0.215,0.215,0.537,0.538,0.968c0.322,0.432,0.645,0.646,0.752,0.753c0.215,0,0.43-0.105,0.752-0.431
			c0.323-0.322,0.86-0.753,1.72-1.183c0.322-0.216,0.646-0.537,0.753-0.859c0.215-0.43,0.215-0.967,0.215-1.827L423.293,127.66z
			 M420.176,118.309c-2.364,0.646-3.547,1.075-3.547,1.075c0.107-0.753,0.323-1.397,0.323-1.935c0.105-1.074,0.215-1.937,0.322-2.58
			h0.215c1.396-0.322,2.362-0.646,2.899-0.859c-0.105,1.505-0.215,3.01-0.215,4.406L420.176,118.309L420.176,118.309z
			 M420.498,111.323c-0.322,0.106-0.646,0.216-1.182,0.321l-1.507,0.432c0-1.075,0.107-2.042,0.432-2.901
			c0.105-0.43,0.215-0.752,0.215-1.183c0.753-0.217,1.183-0.432,1.505-0.537c0.322-0.108,0.537-0.108,0.537-0.108
			c0.105,0.108,0.105,0.538,0.105,1.398c-0.105,0.857-0.105,1.719-0.105,2.687V111.323L420.498,111.323z M429.204,105.52
			c-0.322-0.32-0.646-0.43-1.075-0.43s-0.752,0.107-0.967,0.43c-0.215,0.323-0.322,0.646-0.431,1.289
			c-0.859,4.191-1.289,8.383-1.396,12.685c0,1.505-0.107,3.009-0.215,4.515c-0.107,1.611,0,3.438,0.215,5.479
			c0.107,0.754,0.322,1.289,0.537,1.612c0.215,0.215,0.43,0.322,0.645,0.322c0.217,0,0.323-0.107,0.433-0.431
			c0.105-0.322,0.537-0.537,1.182-0.969c0.107-0.105,0.215-0.43,0.215-0.967c0.969-0.215,1.722-0.322,2.042-0.215
			c0.322,0,0.86-0.107,1.397-0.322c0.645-0.215,1.075-0.43,1.505-0.646c0.537,0.538,1.289,1.075,2.472,1.827
			c1.185,0.645,1.937,1.072,2.474,1.289c0.536,0.216,0.753,0.216,0.968,0.106l0.321-0.431c0.106-0.215,0.216-0.322,0.321-0.432
			c0.107-0.106,0.107-0.215,0.215-0.215c0.322,0,0.538,0,0.86,0.215c0.967,0.646,1.504,0.432,1.72-0.43
			c0-0.105-0.216-0.322-0.753-0.537s-0.857-0.43-0.967-0.537c-0.108-0.105-0.322-0.32-0.646-0.537
			c-0.646-0.536-1.183-0.858-1.826-1.184l-1.937-1.182l-0.967-0.646c0.537-1.505,0.859-2.901,1.075-3.869
			c0.215-1.073,0.321-1.826,0.537-2.58c0.215-0.645,0.32-1.182,0.43-1.719c0.107-0.43,0-0.752-0.322-0.968
			c-0.32-0.215-0.753-0.537-1.396-0.86c-0.646-0.321-1.29-0.215-2.149,0.323c-0.43,0.43-0.967,0.646-1.396,0.86
			c-0.432,0.105-1.074,0.43-1.937,0.752c-0.43,0.105-0.752,0.32-0.857,0.537c-0.107,0.215,0.105,0.536,0.43,1.072
			c0.322,0.538,0.645,0.646,0.968,0.646c0.537-0.107,1.396-0.646,2.688-1.612c0.215-0.215,0.43-0.215,0.536-0.215
			c0.106,0.107,0.106,0.322,0,0.752c-0.321,1.828-0.752,3.332-1.073,4.621c-0.107-0.107-0.215-0.322-0.432-0.43
			c-1.183-1.396-2.043-2.363-2.795-2.688c-0.645-0.321-1.182-0.646-1.396-0.859c-0.215-0.216-0.431-0.431-0.646-0.431
			c0.216-5.588,0.646-9.026,1.185-10.315c0.215,0,0.537,0,0.967-0.107c0.752-0.322,1.935-0.86,3.547-1.72
			c0.322-0.107,0.537-0.216,0.646-0.107c0,0.107,0,0.752-0.106,1.721s-0.322,1.936-0.752,2.9c-0.107,0.322-0.322,0.538-0.43,0.646
			l-0.433,0.106c-0.43,0-0.967-0.106-1.396-0.215c-0.433-0.108-0.646-0.108-0.753,0c-0.107,0.106,0,0.215,0.105,0.43
			c0.322,0.322,0.433,0.538,0.433,0.646c-0.108,0.105,0,0.43,0.215,1.073c0.215,0.645,0.43,0.968,0.645,1.073
			c0.215,0.107,0.431,0.107,0.859-0.105c0.431-0.107,0.753-0.215,0.968-0.215s0.646-0.107,0.967-0.432
			c0.86-0.536,1.505-1.72,2.15-3.438c0.215-0.752,0.322-1.504,0.43-2.257l0.107-1.612c0.105-0.646-0.431-1.396-1.505-2.256
			c-0.322-0.217-0.537-0.217-0.752,0c-0.217,0.215-0.538,0.321-0.97,0.321c-0.32,0-0.752,0-1.289,0.106
			c-0.431,0.107-1.073,0.322-1.825,0.322c-0.754,0.105-1.397,0.215-2.149,0.321L429.204,105.52z M428.236,121.319
			c0.32,0.322,0.646,0.537,0.968,0.859s0.645,0.968,1.182,1.938c0.538,0.967,0.968,1.719,1.505,2.146
			c-0.752,0.646-1.935,1.29-3.547,2.043c-0.215-2.258-0.215-4.299-0.105-6.234C428.236,121.856,428.236,121.534,428.236,121.319z"/>
		<path fill="#FEFEFE" d="M202.982,12.05v38.047h4.944v-3.654h-19.453v-9.994c0-1.396,0.967-2.473,2.257-2.473h8.383
			c4.944,0,7.416-1.828,8.383-6.02h-8.92c-1.183,2.258-2.902,2.363-6.234,2.363h-8.706c-2.042,0-3.761,1.936-3.761,4.191v37.187
			c0,5.268,0,10.963-1.72,16.229h8.706c1.612-5.051,1.719-10.961,1.719-16.229V49.882h5.696v38.044h8.706V12.05L202.982,12.05z
			 M157.666,86.315h7.523c2.257,0,4.084-1.934,4.084-4.189V62.241h9.78v-3.654h-9.78v-6.556h10.103v-3.654h-3.654l1.397-9.673h-8.92
			l-1.505,9.673h-4.299l-1.29-9.673h-9.028l1.397,9.673h-3.654v3.654h9.995v6.556h-9.672v3.654h9.672v18.271
			c0,1.396-0.859,2.256-2.042,2.256h-0.215v3.654L157.666,86.315z M178.946,35.909v-3.654h-9.565v-6.233h-9.458v6.233h-9.565v3.654
			H178.946z M178.839,84.704c-0.86-6.879-1.505-13.223-1.72-19.239h-6.664c0.215,6.341,0.645,13.004,1.505,19.239H178.839z
			 M156.806,84.704c0.86-6.234,1.29-12.897,1.505-19.239h-6.664c-0.215,6.018-0.86,12.467-1.612,19.239h6.878H156.806z"/>
		<path id="_x31_" fill="#FEFEFE" d="M226.128,86.208V77.18h11.607v3.116c0,1.29-1.075,2.364-2.365,2.364h-2.257v3.547h9.995
			c2.257,0,4.191-1.826,4.191-4.084V56.007c0-2.365-1.935-4.192-4.191-4.192h-22.355c-2.364,0-4.191,1.827-4.191,4.192v30.308h9.565
			L226.128,86.208L226.128,86.208z M216.24,46.12c-0.215,0.645-0.107,1.504,0.322,2.147c0.429,0.646,1.182,0.967,1.935,0.967h26.869
			c0.752,0,1.505-0.32,1.935-0.967c0.538-0.645,0.538-1.505,0.43-2.147l-3.439-11.607h-9.565l2.794,9.458
			c0.107,0.43,0.107,0.86-0.107,1.075c-0.215,0.322-0.537,0.537-0.967,0.537h-8.383c-0.43,0-0.645-0.107-0.967-0.537
			c-0.215-0.215-0.323-0.646-0.215-1.075l5.803-17.518h-9.888l-6.448,19.56L216.24,46.12z M275.889,82.124h-13.972
			c-1.29,0-2.364-1.184-2.364-2.364V57.512h-9.565v23.967c0,2.364,1.827,4.191,4.191,4.191h21.71v-3.654V82.124L275.889,82.124z
			 M275.889,51.063h-13.972c-1.29,0-2.364-1.075-2.364-2.363V26.558h-9.565v23.967c0,2.365,1.827,4.191,4.191,4.191h21.71V51.063
			L275.889,51.063z M269.118,42.895c3.009-4.299,5.052-8.706,6.771-13.327h-8.383c-1.935,4.729-3.977,8.49-7.309,13.327H269.118z
			 M269.118,73.848c3.009-4.299,5.052-8.706,6.771-13.22h-8.383c-1.935,4.729-3.977,8.383-7.309,13.22H269.118z M226.235,57.834
			c0-1.29,1.075-2.364,2.364-2.364h6.771c1.29,0,2.365,1.075,2.365,2.364v5.159h-11.607v-5.159H226.235z M226.235,66.647h11.607
			v6.986h-11.607V66.647z"/>
		<path id="_x32_" fill="#FEFEFE" d="M319.309,86.208h7.633c2.362,0,4.404-1.826,4.404-4.191V64.175h5.589
			c2.474,0,4.406-1.827,4.406-4.084V43.97c0-2.364-1.935-4.191-4.406-4.191H327.8l1.611-6.231h-9.995l-1.612,6.231h-1.935
			c-2.364,0-4.406,1.827-4.406,4.191v16.122c0,2.257,2.042,4.084,4.406,4.084h6.02V81.48c0,0.646-0.646,1.184-1.29,1.184h-1.29
			v3.652V86.208L319.309,86.208z M309.421,34.082c0-1.29,1.075-2.364,2.472-2.364h30.096v-3.654h-38.154
			c-2.364,0-4.406,1.937-4.406,4.191v38.798c0,6.664-0.105,11.178-1.505,15.154h10.211c1.289-3.764,1.289-9.78,1.289-15.047
			L309.421,34.082L309.421,34.082z M291.688,86.315c3.117-6.341,5.267-15.047,6.557-23.967h-9.566
			c-1.182,9.135-3.332,16.014-6.556,23.967h9.672H291.688z M342.094,86.208c-1.075-5.911-1.61-12.037-1.61-18.378h-7.738
			c0.105,6.231,0.43,12.467,1.612,18.378h7.846H342.094z M317.804,86.208c1.505-5.806,2.15-12.037,2.688-18.378h-7.848
			c-0.215,6.341-1.183,12.467-2.577,18.378H317.804z M298.136,57.727l-4.191-14.294h-9.78l4.299,14.294H298.136z M297.276,39.456
			l-4.084-13.327h-9.78l4.191,13.327H297.276z M323.393,60.521c-1.396,0-2.472-1.075-2.472-2.362v-4.516h10.855v4.516
			c0,1.29-1.185,2.362-2.475,2.362H323.393z M331.776,49.988h-10.855v-4.404c0-1.29,1.183-2.364,2.472-2.364h5.911
			c1.29,0,2.475,1.075,2.475,2.364L331.776,49.988L331.776,49.988z"/>
		<path id="_x33_" fill="#FEFEFE" d="M407.761,80.082c-16.979-0.215-24.826-5.696-24.826-15.046v-2.688h-9.778v2.688
			c0,9.35-7.848,14.832-24.827,15.046v5.911c14.724-0.217,24.504-3.117,29.663-8.49c5.159,5.479,14.938,8.383,29.771,8.49
			L407.761,80.082L407.761,80.082z M361.654,75.89V61.918c0-1.29,1.072-2.365,2.362-2.365h27.836c1.29,0,2.364,1.075,2.364,2.365
			V75.89h9.565V60.2c0-2.259-1.827-4.191-4.191-4.191h-43.525c-2.259,0-4.191,1.935-4.191,4.191V75.89h9.565H361.654z
			 M407.868,49.129h-16.98c-1.29,0-2.363-1.075-2.363-2.365v-6.878c6.019-2.042,11.93-4.406,17.731-6.878v-4.191
			c-5.911,2.58-11.715,4.836-17.731,6.878v-9.241h-9.564v12.357c-3.332,0.967-6.557,1.827-9.78,2.58v4.191
			c3.226-0.752,6.558-1.612,9.78-2.58v5.589c0,2.365,1.935,4.191,4.191,4.191h24.824v-3.654L407.868,49.129L407.868,49.129z
			 M364.341,52.891V33.975h-2.257c1.29-2.364,2.364-4.942,3.439-7.521h-9.89c-1.935,5.266-4.729,10.21-7.631,15.152h6.771v11.285
			H364.341z"/>
		<path id="_x34_" fill="#FEFEFE" d="M414.209,38.381h10.641l-8.061,16.121c-0.538,1.182-0.538,2.365,0.215,3.547
			c0.646,1.075,1.72,1.612,3.009,1.612h19.668v11.177h-25.579v3.654h25.579v11.715h9.565V74.493h24.505v-3.654h-24.505V59.661h22.57
			v-3.654h-22.57V44.185h-9.565v11.822h-11.93c-0.43,0-0.752-0.215-0.967-0.538c-0.215-0.43-0.215-0.86-0.107-1.182l7.738-16.016
			h39.336V34.62h-37.509l4.084-8.385h-9.565l-4.189,8.385h-12.47v3.652L414.209,38.381z"/>
		<path id="_x35__1_" fill="#FEFEFE" d="M505.886,85.993h34.069v-3.654h-2.149V32.255c0-2.364-1.935-4.299-4.404-4.299h-21.175
			c-2.362,0-4.299,1.935-4.299,4.299v50.083h-2.042V85.993L505.886,85.993z M480.199,32.578h8.061v9.35h-8.061v3.547h8.061v40.84
			h9.138v-40.84h8.061v-3.547h-8.061v-9.35h1.287c4.729,0,7.311-2.259,8.601-6.449H496.43c-1.072,1.935-2.794,2.794-5.374,2.794
			h-10.854v3.655H480.199z M485.466,86.315c0.859-5.156,0.967-10.21,0.967-15.369V47.731h-5.479v23.107
			c0,5.159-0.107,10.318-0.752,15.477H485.466z M504.596,86.315V47.731h-5.373v38.583L504.596,86.315L504.596,86.315z
			 M528.025,46.872h-10.104v-12.79c0-1.29,1.075-2.364,2.364-2.364h5.374c1.29,0,2.364,1.182,2.364,2.364L528.025,46.872
			L528.025,46.872z M517.923,68.259h10.104v14.187h-10.104V68.259z M517.923,50.526h10.104v14.079h-10.104V50.526z"/>
		<path id="_x36__1_" fill="#FEFEFE" d="M561.558,64.39v-2.364h44.28v-3.652H586.6v-5.159h16.981V49.56H586.6v-5.266h16.981V40.64
			H586.6v-5.16h19.238v-3.652h-19.453l-1.075-5.696h-9.778l1.073,5.696h-14.399c0.857-1.827,1.609-3.764,2.364-5.696H554.25
			c-2.258,5.911-4.944,11.285-8.061,17.089h5.803v20.958h9.458L561.558,64.39z M551.348,81.909c0,2.257,1.937,4.189,4.191,4.189
			h45.247c2.364,0,4.189-1.935,4.189-4.189v-11.5c0-2.364-1.935-4.191-4.189-4.191h-45.247c-2.257,0-4.191,1.827-4.191,4.191V81.909
			z M595.412,80.082c0,1.29-1.074,2.362-2.364,2.362h-29.663c-1.289,0-2.364-1.072-2.364-2.362v-7.953
			c0-1.29,1.075-2.364,2.364-2.364h29.663c1.29,0,2.364,0.967,2.364,2.364V80.082z M561.558,44.4h15.369v5.268h-15.369V44.4z
			 M561.558,53.32h15.369v5.159h-15.369V53.32z M561.558,35.694h15.369v5.159h-15.369V35.694z"/>
		<path fill="#FEFEFE" d="M151.433,109.422h64.27v1.935h-64.27c-0.215,0-0.322-0.105-0.322-0.215v-1.396
			c0-0.107,0.107-0.215,0.322-0.215V109.422L151.433,109.422z M188.189,125.329h27.944v1.935h-27.944
			c-0.107,0-0.322-0.105-0.322-0.215v-1.397c0-0.105,0.107-0.215,0.322-0.215V125.329z M544.685,125.329h23.537
			c0.107,0,0.322,0.105,0.322,0.215v1.396c0,0.107-0.106,0.217-0.322,0.217h-23.537v-1.937V125.329z M167.124,117.375h48.901v1.935
			h-48.901c-0.215,0-0.322-0.105-0.322-0.215v-1.396c0-0.107,0.107-0.217,0.322-0.217V117.375z M544.685,117.375h44.494
			c0.216,0,0.323,0.105,0.323,0.215v1.396c0,0.107-0.107,0.217-0.323,0.217h-44.494v-1.937V117.375z M544.685,109.422h60.188
			c0.215,0,0.323,0.105,0.323,0.215v1.396c0,0.106-0.108,0.216-0.323,0.216h-60.188v-1.937V109.422z"/>
	</g>
	
		<image overflow="visible" enable-background="new    " width="168" height="180" xlink:href="logo_20230113_uugai.com_16736169.png"  transform="matrix(0.9155 0 0 0.914 -3.9839 -11.9592)">
	</image>
</g>
</svg>
