<?xml version="1.0" encoding="utf-8"?>
<!-- Generator: Adobe Illustrator 16.0.0, SVG Export Plug-In . SVG Version: 6.00 Build 0)  -->
<!DOCTYPE svg PUBLIC "-//W3C//DTD SVG 1.1//EN" "http://www.w3.org/Graphics/SVG/1.1/DTD/svg11.dtd">
<svg version="1.1" id="图层_1" xmlns="http://www.w3.org/2000/svg" xmlns:xlink="http://www.w3.org/1999/xlink" x="0px" y="0px"
	 width="605.945px" height="140.602px" viewBox="0 0 605.945 140.602" enable-background="new 0 0 605.945 140.602"
	 xml:space="preserve">
<g>
	<g>
		<path id="_x35_" fill="#332C2B" d="M319.726,106.216c-1.383,2.34-2.34,3.935-2.872,4.785c-0.53,0.852-0.955,1.489-1.17,2.021
			c-0.213,0.531-0.426,0.853-0.742,1.275c-0.428,0.745-0.854,1.596-1.172,2.553c-0.317,0.854-0.426,1.489-0.213,1.596
			c0.319,0.215,0.64,0,1.063-0.426c0.426-0.529,0.851-0.744,1.274-0.851c0.427,0,0.744-0.212,0.853-0.532
			c0.104-0.318,0.319-0.531,0.532-0.531c0.212-0.104,0.638-0.529,1.274-1.274c0.105-0.106,0.105-0.212,0.212-0.319
			c-0.425,2.021-0.638,4.148-0.742,6.275c-0.106,2.127-0.106,3.614-0.215,4.786c-0.104,1.063,0,2.127,0.106,3.297
			c0.104,1.17,0.319,1.808,0.532,2.021c0.425,0.532,0.744,0.426,0.957,0c0.104-0.213,0.425-0.531,1.17-0.851
			c0.213-0.106,0.213-0.532,0.104-1.276c-0.213-1.596-0.317-3.084-0.317-4.36c0.104-3.51,0.213-5.954,0.317-7.126
			c0.106-1.17,0.213-2.021,0.427-2.553c0.426-0.957,0.213-1.701-0.531-2.231c-0.106-0.106-0.213-0.106-0.319-0.106
			c0.213-0.318,0.426-0.639,0.744-1.063c0.319-0.427,0.532-0.853,0.852-1.172c0.214-0.317,0.531-0.851,0.957-1.487
			c0.319-0.64,0.428-1.17,0.319-1.383c-0.213-0.531-0.532-1.063-0.958-1.597c-0.425-0.425-0.851-0.638-1.275-0.745
			c-0.426,0-0.958,0.428-1.487,1.49L319.726,106.216z M329.403,111.746c-0.318,0.105-0.744,0.213-1.488,0.531
			c-0.745,0.318-1.596,0.531-2.659,0.852c-0.745,0.213-1.17,0.532-1.063,0.957c0.316,1.17,0.638,1.809,1.17,2.128
			c0.316,0.104,0.531,0.319,0.744,0.532s0.639,0.213,1.17,0.213c-0.319,0.637-0.744,1.701-1.276,3.297
			c-0.638,1.595-1.17,2.871-1.808,3.828c-0.532,0.957-1.276,2.659-2.021,4.999c-0.104,0.425-0.104,0.745,0,0.745
			c0.106,0.104,0.319,0,0.426-0.32c0.106-0.213,0.319-0.425,0.532-0.638c0.212-0.106,0.425-0.319,0.531-0.532
			c0.104-0.213,0.213-0.425,0.319-0.531c0.104-0.104,0.213-0.316,0.426-0.426c0.104-0.213,0.316-0.426,0.638-0.638
			c0.532-0.319,1.383-1.702,2.659-4.042c1.276-2.342,2.127-4.041,2.553-5.105l0.853-1.914l2.656-1.063l3.3-1.385
			c0.212-0.105,0.316-0.213,0.316-0.426s0-0.426,0.106-0.531c0.104-0.213,0.104-0.318,0.104-0.426c0-0.106,0-0.317,0-0.426
			c0-0.213-0.104-0.318-0.213-0.426c-0.104-0.105-0.212-0.213-0.316-0.318c-0.106-0.104-0.215-0.213-0.319-0.213
			c-0.106,0-0.213-0.106-0.426-0.213c-0.106-0.106-0.531-0.106-1.063,0.104l-2.021,0.64c0.317-0.957,0.743-1.81,1.17-2.554
			c0.317-0.639,0.104-1.274-0.427-1.913c-0.214-0.215-0.426-0.428-0.639-0.428s-0.317-0.104-0.426-0.212
			c-0.107-0.105-0.319-0.104-0.638-0.104c-0.319,0.104-0.532,0.213-0.745,0.529c-0.212,0.319-0.318,0.532-0.212,0.745
			c0.104,0.212,0.104,0.427-0.106,0.64l-1.702,4.359L329.403,111.746z M331.318,116.213c-0.213,0.104-0.319,0.532-0.319,1.063
			c0,0.531-0.213,1.385-0.744,2.658c-0.426,1.17-0.745,2.66-0.852,4.468c-0.107,1.81,0.104,3.085,0.53,4.042
			c0.427,0.852,0.853,1.488,1.276,1.914c0.853,0.744,2.34,1.17,4.467,1.275c3.297,0.107,5.424-0.105,6.487-0.744
			c0.639-0.426,1.063-0.851,1.489-1.383c0.426-0.638,0.53-1.275,0.213-1.808c-0.106-0.532-0.426-0.853-0.957-1.172
			c-0.426-0.317-0.745-0.638-0.854-1.063c-0.105-0.425-0.212-0.957-0.316-1.383c-0.106-0.427-0.213-0.744-0.426-0.853
			c-0.319,0-0.428,0.319-0.428,0.957c0,0.64,0,1.597,0,2.767c0,0.213-0.425,0.426-1.17,0.745c-0.744,0.317-1.808,0.53-2.978,0.425
			c-2.446,0-3.938-0.425-4.254-1.063c-0.319-0.532-0.427-1.275-0.427-2.127s0.214-1.915,0.53-3.189
			c0.319-1.275,0.641-2.127,1.064-2.555c0.316-0.426,0.425-0.851,0.53-1.383c0.105-0.957-0.427-1.488-1.7-1.701
			c-0.427,0-0.745,0.106-1.064,0.213L331.318,116.213z M339.082,108.556c0.319,0.318,0.744,0.531,1.063,0.638
			c0.428,0.106,0.744,0.106,1.172-0.317c0.638-0.64,0.53-1.598-0.428-2.658c-0.316-0.319-0.851-0.532-1.699-0.639
			c-0.532-0.106-0.957-0.106-1.276,0.213c-0.213,0.316-0.213,0.744,0.104,1.17c0.319,0.639,0.64,1.063,0.957,1.488L339.082,108.556z
			"/>
		<path id="_x36_" fill="#332C2B" d="M363.012,120.361c0.106,1.385,0,2.872-0.212,4.682c-0.104,1.063-0.426,1.914-0.958,2.766
			c-0.638,0.957-1.382,1.811-2.231,2.553c-0.64,0.531-1.385,1.172-2.021,1.811c-0.426,0.425-0.638,0.744-0.638,0.957
			c0.104,0.104,0.316,0.104,0.744-0.107c0.317-0.213,0.851-0.425,1.596-0.638c0.744-0.319,1.382-0.532,1.808-0.745
			c0.428-0.212,0.853-0.531,1.385-0.85c0.529-0.32,1.17-0.957,1.913-1.915c0.427-0.745,0.852-1.702,1.063-2.979
			c0.106-0.852,0.213-1.702,0.213-2.659c0.106-1.063,0.106-1.7,0.106-2.021c0-0.213,0-0.426,0.104-0.639
			c0.106-0.318,0-0.641-0.213-1.063c-0.213-0.319-0.638-0.638-1.383-0.957c-0.531-0.213-0.957-0.213-1.17,0
			c-0.318,0.425-0.318,1.063-0.106,1.915L363.012,120.361L363.012,120.361z M367.479,103.451c-0.53,0.316-1.913,0.639-4.359,1.17
			c-2.446,0.529-4.041,0.744-4.786,0.639c-0.744-0.107-1.276,0-1.382,0.212c-0.106,0.106-0.319,0.532-0.532,1.17l-0.744,2.553
			c-0.213,0.853-0.852,2.979-1.915,6.487c-1.063,3.404-1.914,6.275-2.445,8.615c-0.53,2.34-0.956,3.828-1.171,4.68
			c-0.425,1.598-0.425,2.446-0.104,2.553c0.104,0,0.319-0.213,0.532-0.742c0.213-0.532,0.426-0.957,0.638-1.17
			c0.532-0.428,0.958-1.277,1.276-2.234c0.317-1.063,0.639-2.127,1.063-3.19c0.426-1.063,0.745-2.231,1.064-3.51
			c0.316-1.274,0.638-2.34,0.957-3.188l1.486-4.574c0.641-2.127,1.17-3.615,1.598-4.572c0.53,0,2.34-0.319,5.424-0.957
			c-0.318,0.105-0.425,0.531-0.425,0.957c0,0.531-0.106,1.17-0.319,1.809c-1.276,0.214-2.766,0.427-4.254,0.852
			c-0.957,0.213-1.276,0.639-1.276,1.17c0.106,0.744,0.319,1.17,0.531,1.383c0.639,0.531,1.17,0.744,1.596,0.531
			c0.213-0.105,0.532-0.212,0.957-0.318l1.383-0.213L361.735,116c-0.212,0-0.318,0-0.531,0.104
			c-0.213-0.426-0.532-0.639-0.853-0.639c-0.317,0-0.639,0.107-0.852,0.426c-0.531,0.744-0.744,1.914-0.957,3.51
			c-0.105,2.871-0.105,4.786-0.105,5.531c0.105,0.744,0.214,1.488,0.427,2.127c0.213,0.64,0.529,0.957,0.851,0.957
			c0.957,0,1.489-0.639,1.489-1.914c-0.319-2.872-0.213-5.529,0.213-8.084c2.34-0.426,3.935-0.744,4.573-0.957
			c0.638-0.213,1.063-0.316,1.17-0.213c0.104,0.107,0.213,0.319,0.213,0.641c0.106,2.766,0.106,4.68,0.106,5.528
			c-0.106,0.853-0.215,1.383-0.532,1.383c-0.319,0.106-0.426,0.319-0.319,0.64c0.106,0.426,0.213,0.744,0.426,1.17
			c-0.317,0.105-0.53,0.213-0.957,0.317c-0.426,0.215-0.426,0.64,0,1.276c0.214,0.213,0.531,0.531,0.853,0.854
			c0.426,0.425,1.063,1.273,2.021,2.656c0.957,1.276,1.598,1.811,1.811,1.701c0.316-0.316,0.638-0.744,0.744-1.273
			c0.426-1.171,0.53-2.021,0.317-2.659c-0.104-0.319-0.317-0.64-0.745-0.958c-0.529-0.531-0.957-0.852-1.382-1.063
			c-0.104-0.105-0.213-0.105-0.318-0.213c0.639-0.639,1.063-1.809,1.171-3.297c0.104-0.639,0.104-1.383,0.104-2.34
			c0-0.854,0-1.596-0.104-2.234c0-0.638,0-1.063,0.104-1.486c0.106-0.427,0-0.854-0.213-1.172c-0.532-0.742-1.063-1.274-1.702-1.699
			c-0.316-0.213-0.744-0.107-1.063,0.212c-0.318,0.317-0.744,0.425-1.276,0.425c-0.531,0-1.808,0.107-3.722,0.426
			c0.425-0.638,0.851-1.17,1.063-1.596l0.64-1.063c1.914-0.426,3.723-0.639,5.637-0.742c0.318,0,0.639,0,0.957,0.104
			c0.532,0.213,1.063,0.106,1.596-0.426c0.106-0.105,0.213-0.318,0.319-0.425l0.213-0.64c0-0.213-0.213-0.639-0.854-1.275
			c-0.212-0.318-1.063-0.427-2.552-0.318c-1.383,0.106-2.553,0.213-3.189,0.318c0-0.105,0-0.212,0-0.318s0-0.319,0.104-0.531
			c0.106-0.426-0.213-0.852-1.17-1.383c-0.318-0.213-0.638-0.319-0.957-0.319l2.021-0.53c0.639-0.318,1.274-0.428,1.7-0.531
			c0.531,0,0.957-0.319,1.276-0.744c0.318-0.426,0.213-0.958-0.426-1.702c-0.426-0.426-0.853-0.745-1.063-0.851
			c-0.317,0-0.638,0.104-0.851,0.316L367.479,103.451z"/>
		<path id="_x37_" fill="#332C2B" d="M393.11,110.151l4.999-0.851c0.317-0.106,0.743-0.106,1.063-0.213
			c0.213-0.106,0.426-0.318,0.639-0.744c0.215-0.426,0.318-0.957,0.106-1.489c-0.213-0.53-0.639-0.957-1.17-1.063
			c-0.213,0-0.426-0.106-0.745-0.319c-0.425-0.104-0.744-0.104-0.851,0c-0.215,0.213-0.64,0.319-1.172,0.426
			c0-0.104,0-0.104,0-0.213c0-0.425-0.213-1.063-0.53-1.702c-0.318-0.742-0.853-1.17-1.275-1.273c-0.532-0.107-0.852,0-1.17,0.425
			l-2.021,3.51c-0.214,0-0.53,0-1.171,0.106c-0.529,0.104-1.17,0.104-1.808,0.213c-0.639,0-0.957,0.104-1.17,0.318
			c-0.319,0.53-0.213,1.063,0.213,1.809l0.531,0.744c0.213,0.213,0.426,0.426,0.639,0.532c0.212,0.104,0.425,0.213,0.531,0.317
			c-0.853,1.488-1.701,2.979-2.34,4.467c-0.531,1.063-1.17,1.811-2.021,2.445c-0.426,0.213-0.744,0.533-0.744,0.958
			s0.212,0.957,0.64,1.489c0.426,0.531,0.851,0.851,1.17,0.851c0.317,0,0.957,0,1.702-0.213c1.595-0.212,2.871-0.425,3.722-0.532
			c0.852-0.104,1.596-0.213,2.128-0.316v2.979c-0.426,0-0.958,0.105-1.489,0.212c-3.829,0.532-6.169,0.958-7.23,1.17
			c-1.063,0.215-1.81,0.427-2.446,0.64s-0.957,0.426-1.063,0.745c-0.105,0.317,0,0.851,0.427,1.487
			c0.425,0.744,0.744,1.17,1.17,1.275c0.212,0.105,0.851,0,1.808-0.213c2.021-0.637,4.573-1.17,7.445-1.701
			c0.425-0.105,0.851-0.105,1.383-0.213c0,5.104,0.212,7.658,0.638,7.764c0.215,0,0.428-0.212,0.532-0.744
			c0.105-0.529,0.425-0.851,0.853-1.17c0.425-0.316,0.851-0.744,0.957-1.273c0.213-0.532,0.317-1.277,0.317-2.447
			c0-1.063,0-1.914,0.106-2.658c1.382-0.213,3.084-0.317,4.998-0.426c1.915-0.105,3.189,0,3.723,0.213
			c0.532,0.318,0.957,0.318,1.276,0.318c0.317-0.105,0.744-0.212,1.063-0.427c0.106-0.104,0.319-0.425,0.319-1.063
			c0.104-1.17-0.319-1.914-1.383-2.127c-0.64-0.106-1.17-0.319-1.489-0.531c-0.318-0.213-0.531-0.319-0.638-0.213
			c-0.106,0.105-0.428,0.213-0.853,0.318c-0.426,0.104-1.383,0.213-2.872,0.317c-1.488,0.106-2.871,0.212-4.146,0.427v-2.021
			c0-0.426,0-0.852,0-1.063c0.638-0.105,1.382-0.215,2.444-0.318c1.063-0.107,2.128-0.213,3.19-0.426
			c0.531-0.106,0.851-0.213,0.957-0.641c0-0.426-0.106-0.957-0.319-1.486c-0.213-0.532-0.425-0.957-0.638-1.064
			c-0.213-0.104-0.639-0.104-1.276,0c-0.639,0.107-1.701,0.32-3.188,0.532c-0.426,0-0.745,0.104-1.063,0.213
			c0-0.425,0.105-0.745,0.212-1.17c0.106-0.745,0.106-1.276-0.104-1.595c-0.957-1.385-1.914-1.811-2.658-1.49
			c-0.745,0.32-1.063,1.277-0.852,2.766c0,0.531,0,1.276,0.104,2.127c-0.744,0.107-1.382,0.213-2.127,0.428
			c-0.957,0.104-1.595,0.104-1.701-0.215c-0.104-0.213,0-0.639,0.426-1.383l3.402-5.424L393.11,110.151z"/>
		<path id="_x38_" fill="#332C2B" d="M423.315,127.7c-0.105-6.597-0.105-11.274,0.104-14.358c0.213-2.978,0.319-4.785,0.532-5.424
			c0.213-0.641,0.213-1.063,0.104-1.383c-0.317-0.744-0.957-1.385-1.915-1.914c-0.316-0.106-0.529-0.106-0.742,0.104
			c-0.531,0.532-0.957,0.853-1.489,0.853c-0.425,0.104-0.853,0.104-1.063,0.104h-0.743c-0.214-0.213-0.427-0.425-0.743-0.532
			c-0.319-0.104-0.745,0.107-1.17,0.745c-0.319,0.427-0.428,1.17-0.319,2.233c0.104,0.957,0,2.021-0.106,3.188
			c-0.213,1.172-0.317,2.233-0.426,3.19c-0.105,0.957-0.212,1.914-0.531,2.766c-0.213,0.854-0.53,2.446-0.957,4.786
			c-0.426,2.233-0.743,4.042-1.17,5.425c-0.745,2.658-0.958,3.937-0.53,4.041c0.317,0.105,0.53-0.213,0.851-0.956
			c0.213-0.743,0.532-1.384,0.852-2.021l0.853-1.914c0.426-0.852,0.851-2.233,1.383-4.146c0.318,0,1.063-0.105,2.233-0.531
			s1.808-0.641,2.021-0.744c0,2.445,0,4.254,0,5.317c0,1.063,0,1.7-0.104,1.808c-0.319,0.532-0.957,0.639-1.914,0.426
			c-0.319-0.104-0.428,0-0.532,0.106c-0.106,0.104,0,0.425,0.319,0.745c0.317,0.316,0.426,0.638,0.529,0.85
			c0,0.213,0.213,0.533,0.532,0.958s0.638,0.638,0.853,0.745c0.213,0,0.426-0.107,0.743-0.426c0.318-0.319,0.853-0.744,1.701-1.17
			c0.426-0.215,0.641-0.532,0.853-0.957c0.213-0.428,0.213-0.957,0.213-1.915H423.315z M420.231,118.448
			c-2.342,0.639-3.616,1.063-3.616,1.063c0.104-0.745,0.317-1.382,0.317-1.915c0.106-1.063,0.214-1.914,0.319-2.658h0.213
			c1.382-0.316,2.339-0.639,2.871-0.957c-0.104,1.488-0.213,2.979-0.213,4.36L420.231,118.448z M420.551,111.427
			c-0.317,0.106-0.639,0.213-1.274,0.318l-1.489,0.426c0-1.063,0.104-2.021,0.426-2.979c0.106-0.425,0.213-0.743,0.213-1.274
			c0.744-0.213,1.276-0.426,1.488-0.531c0.319-0.107,0.532-0.107,0.639-0.107c0.106,0.107,0.106,0.532,0.106,1.385
			c-0.106,0.852-0.106,1.702-0.106,2.657L420.551,111.427L420.551,111.427z M429.165,105.578c-0.318-0.318-0.638-0.428-1.063-0.428
			c-0.425,0-0.742,0.107-0.957,0.428c-0.213,0.317-0.425,0.744-0.425,1.274c-0.852,4.147-1.274,8.401-1.383,12.656
			c0,1.489-0.104,2.978-0.213,4.573c-0.107,1.595,0,3.402,0.213,5.531c0.106,0.742,0.318,1.273,0.531,1.699
			c0.213,0.213,0.426,0.318,0.639,0.318s0.318-0.105,0.425-0.425c0.107-0.32,0.532-0.532,1.17-0.957
			c0.106-0.106,0.215-0.425,0.215-1.063c0.957-0.213,1.7-0.317,2.021-0.213c0.319,0,0.854-0.104,1.489-0.316
			c0.639-0.215,1.063-0.428,1.489-0.641c0.529,0.531,1.274,1.17,2.444,1.811c1.17,0.637,1.914,1.17,2.446,1.382
			c0.531,0.213,0.851,0.213,0.957,0.104l0.319-0.426c0.104-0.213,0.212-0.317,0.316-0.426c0.106-0.105,0.106-0.212,0.213-0.212
			c0.319,0,0.532,0,0.853,0.212c0.958,0.639,1.489,0.426,1.702-0.425c0-0.106-0.213-0.319-0.744-0.532
			c-0.532-0.213-0.854-0.425-0.958-0.531c-0.105-0.104-0.318-0.316-0.638-0.531c-0.64-0.53-1.172-0.852-1.81-1.275l-1.915-1.17
			l-0.957-0.64c0.532-1.595,0.957-2.872,1.063-3.828c0.213-1.063,0.317-1.913,0.53-2.554c0.214-0.638,0.318-1.273,0.427-1.701
			c0.105-0.426,0-0.742-0.318-0.957c-0.319-0.213-0.745-0.529-1.383-0.852c-0.64-0.318-1.276-0.213-2.127,0.32
			c-0.426,0.425-0.958,0.637-1.383,0.85c-0.428,0.107-1.063,0.426-1.915,0.853c-0.531,0.104-0.744,0.317-0.853,0.53
			c-0.105,0.213,0.106,0.532,0.426,1.064c0.318,0.53,0.64,0.744,1.063,0.638c0.531-0.104,1.489-0.638,2.659-1.595
			c0.212-0.213,0.425-0.213,0.529-0.213c0.106,0.104,0.106,0.316,0,0.744c-0.317,1.809-0.742,3.297-1.063,4.571
			c-0.106-0.104-0.213-0.317-0.426-0.425c-1.17-1.49-2.021-2.34-2.767-2.66c-0.744-0.316-1.17-0.638-1.383-0.85
			c-0.213-0.213-0.426-0.426-0.639-0.426c0.213-5.531,0.639-9.041,1.274-10.316c0.214,0,0.532,0,0.959-0.106
			c0.743-0.317,1.913-0.851,3.511-1.7c0.316-0.106,0.53-0.213,0.638-0.106c0,0.106,0,0.745-0.105,1.702
			c-0.105,1.063-0.318,2.021-0.743,2.871c-0.106,0.318-0.319,0.531-0.428,0.639l-0.426,0.105c-0.531,0-0.957-0.105-1.382-0.213
			c-0.426-0.105-0.639-0.105-0.745,0c-0.104,0.105,0,0.213,0.106,0.426c0.317,0.318,0.426,0.532,0.426,0.744
			c-0.106,0.105,0,0.532,0.213,1.063c0.212,0.641,0.425,0.957,0.638,1.063c0.214,0.104,0.532,0.104,0.853-0.106
			c0.426-0.104,0.745-0.213,0.958-0.213c0.212,0,0.638-0.104,0.957-0.426c0.851-0.531,1.487-1.701,2.127-3.51
			c0.213-0.744,0.318-1.597,0.426-2.232l0.105-1.702c0.104-0.638-0.427-1.383-1.488-2.231c-0.319-0.214-0.532-0.214-0.854,0
			c-0.212,0.213-0.529,0.316-0.957,0.316c-0.316,0-0.742,0-1.274,0.107c-0.531,0.104-1.063,0.316-1.81,0.316
			c-0.742,0.106-1.383,0.215-2.127,0.319L429.165,105.578z M428.102,121.425c0.319,0.318,0.641,0.531,0.958,0.85
			c0.318,0.32,0.64,0.958,1.172,1.915c0.529,0.958,1.063,1.702,1.486,2.128c-0.744,0.639-1.914,1.275-3.51,2.021
			c-0.213-2.232-0.213-4.254-0.106-6.274c0-0.213,0-0.53,0-0.745V121.425L428.102,121.425z"/>
		<path fill="#332C2B" d="M204.859,11.859v38.074h4.999v-3.615h-19.357V36.32c0-1.383,1.064-2.443,2.234-2.443h8.295
			c4.999,0,7.445-1.811,8.296-5.957h-8.934c-1.17,2.232-2.872,2.447-6.275,2.447h-8.615c-2.021,0-3.829,1.912-3.829,4.254v37.225
			c0,5.318,0,10.955-1.808,16.272h8.721c1.595-5.104,1.808-10.954,1.808-16.272V50.041h5.637v38.075h8.721L204.859,11.859z
			 M157.637,86.254h7.551c2.233,0,4.042-1.914,4.042-4.254V62.112h9.785v-3.614h-9.785V52.01h10.104v-3.616h-3.616l1.382-9.678
			h-8.934l-1.489,9.678h-4.254l-1.276-9.678h-8.934l1.383,9.678h-3.616v3.616h9.998v6.487h-9.679v3.614h9.679v18.295
			c0,1.383-0.851,2.232-2.127,2.232h-0.212v3.615H157.637z M178.908,35.842v-3.616h-9.572v-6.169h-9.466v6.169h-9.572v3.616H178.908
			z M178.802,84.659c-0.851-6.809-1.489-13.294-1.702-19.25h-6.594c0.212,6.381,0.638,12.975,1.489,19.25H178.802z M156.786,84.659
			c0.851-6.274,1.276-12.868,1.489-19.25h-6.594c-0.213,5.956-0.851,12.441-1.595,19.25h6.807H156.786z"/>
		<path id="_x31_" fill="#332C2B" d="M226.13,86.149v-9.041h11.593v3.084c0,1.277-1.063,2.447-2.446,2.447h-2.233v3.51h9.998
			c2.233,0,4.254-1.809,4.254-4.146V55.837c0-2.34-1.915-4.148-4.254-4.148h-22.335c-2.34,0-4.148,1.81-4.148,4.148v30.312H226.13z
			 M216.239,46.052c-0.213,0.745-0.106,1.489,0.319,2.127c0.426,0.638,1.17,0.958,1.915,0.958h26.908
			c0.745,0,1.489-0.319,1.915-0.958c0.532-0.745,0.532-1.489,0.425-2.127l-3.403-11.593h-9.572l2.765,9.465
			c0.106,0.426,0.106,0.851-0.106,1.063c-0.213,0.319-0.532,0.532-1.064,0.532h-8.402c-0.425,0-0.745-0.104-0.957-0.532
			c-0.213-0.213-0.319-0.638-0.213-1.063l5.85-17.548h-9.891l-6.488,19.567v0.107L216.239,46.052L216.239,46.052z M275.799,82.107
			h-13.933c-1.276,0-2.446-1.17-2.446-2.444v-22.23h-9.572v24.037c0,2.34,1.808,4.254,4.148,4.254h21.697v-3.616H275.799z
			 M275.799,51.051h-13.933c-1.276,0-2.446-1.063-2.446-2.446V26.376h-9.572v24.036c0,2.34,1.808,4.146,4.148,4.146h21.697v-3.616
			L275.799,51.051z M268.992,42.861c2.978-4.254,5.105-8.721,6.807-13.294h-8.296c-1.915,4.682-3.935,8.51-7.339,13.294h8.934
			H268.992z M268.992,73.811c2.978-4.254,5.105-8.721,6.807-13.294h-8.296c-1.915,4.682-3.935,8.402-7.339,13.294h8.934H268.992z
			 M226.13,57.751c0-1.276,1.063-2.446,2.446-2.446h6.807c1.276,0,2.446,1.063,2.446,2.446v5.211h-11.593v-5.211H226.13z
			 M226.13,66.579h11.593v7.019H226.13V66.579z"/>
		<path id="_x32_" fill="#332C2B" d="M319.298,86.149h7.552c2.342,0,4.36-1.809,4.36-4.146V64.133h5.637
			c2.446,0,4.469-1.808,4.469-4.148V43.819c0-2.34-1.914-4.146-4.469-4.146H327.7l1.596-6.275h-9.998l-1.595,6.275h-1.915
			c-2.446,0-4.467,1.808-4.467,4.146v16.166c0,2.233,2.021,4.148,4.467,4.148h6.063v17.229c0,0.641-0.638,1.172-1.274,1.172H319.3
			L319.298,86.149L319.298,86.149z M309.407,34.034c0-1.276,1.063-2.446,2.446-2.446h30.099v-3.616H303.77
			c-2.34,0-4.358,1.915-4.358,4.254v38.819c0,6.594-0.106,11.168-1.489,15.104h10.21c1.276-3.83,1.276-9.783,1.276-14.996
			L309.407,34.034L309.407,34.034z M291.646,86.254c3.084-6.381,5.211-14.996,6.488-23.93h-9.572
			c-1.17,9.146-3.297,16.06-6.594,23.93H291.646z M342.059,86.149c-1.063-5.85-1.596-12.02-1.596-18.294h-7.764
			c0.104,6.274,0.426,12.552,1.596,18.294h7.87H342.059z M317.81,86.149c1.488-5.85,2.128-12.02,2.658-18.294h-7.87
			c-0.213,6.274-1.17,12.444-2.553,18.294H317.81z M298.134,57.751l-4.255-14.358h-9.785l4.254,14.358h9.679H298.134z
			 M297.283,39.458l-4.148-13.294h-9.785l4.147,13.294h9.679H297.283z M323.446,60.517c-1.383,0-2.446-1.063-2.446-2.446v-4.467
			h10.849v4.467c0,1.276-1.17,2.446-2.444,2.446H323.446z M331.849,49.987H321v-4.358c0-1.276,1.17-2.446,2.446-2.446h5.956
			c1.274,0,2.444,1.063,2.444,2.446L331.849,49.987L331.849,49.987z"/>
		<path id="_x33_" fill="#332C2B" d="M407.786,80.086c-17.019-0.213-24.887-5.637-24.887-14.997V62.43h-9.785v2.659
			c0,9.36-7.87,14.784-24.889,14.997v5.955c14.679-0.213,24.464-3.189,29.675-8.508c5.212,5.424,14.89,8.295,29.777,8.508v-5.955
			H407.786z M361.734,75.833V61.899c0-1.274,1.063-2.444,2.444-2.444h27.761c1.274,0,2.444,1.063,2.444,2.444v13.935h9.572V60.091
			c0-2.234-1.809-4.254-4.148-4.254H356.31c-2.232,0-4.146,1.915-4.146,4.254v15.741L361.734,75.833L361.734,75.833z
			 M407.893,49.137h-17.017c-1.276,0-2.446-1.063-2.446-2.446v-6.913c5.956-2.021,11.912-4.359,17.764-6.911V28.61
			c-5.852,2.554-11.808,4.894-17.764,6.913V26.27h-9.57v12.337c-3.299,0.957-6.487,1.81-9.784,2.554v4.254
			c3.188-0.745,6.485-1.597,9.784-2.555v5.531c0,2.34,1.915,4.254,4.255,4.254h24.778v-3.613V49.137L407.893,49.137z
			 M364.394,52.859V33.928h-2.231c1.273-2.446,2.445-4.893,3.51-7.551h-9.892c-1.914,5.211-4.682,10.21-7.657,15.208h6.807v11.272
			h9.572L364.394,52.859L364.394,52.859z"/>
		<path id="_x34_" fill="#332C2B" d="M414.168,38.395h10.636l-7.977,16.166c-0.532,1.17-0.532,2.446,0.212,3.51
			c0.745,1.063,1.809,1.597,3.085,1.597H439.8v11.167h-25.523v3.617H439.8v11.697h9.572V74.45h24.567v-3.617h-24.567V59.666h22.547
			V56.05h-22.547V44.244H439.8V56.05h-11.912c-0.426,0-0.744-0.213-1.063-0.532c-0.213-0.425-0.213-0.851-0.106-1.169l7.766-15.954
			h39.353v-3.616H436.29l4.147-8.296h-9.572l-4.147,8.296h-12.55V38.395L414.168,38.395z"/>
		<path id="_x35__1_" fill="#332C2B" d="M505.953,86.042h34.034v-3.615h-2.128V32.332c0-2.34-1.914-4.254-4.36-4.254h-21.165
			c-2.34,0-4.254,1.914-4.254,4.254v50.094h-2.127V86.042z M480.215,32.545h7.979v9.357h-7.979v3.512h7.979v40.84h9.146v-40.84
			h7.978v-3.512h-7.978v-9.357h1.276c4.786,0,7.339-2.233,8.613-6.488H496.38c-1.063,1.915-2.765,2.872-5.424,2.872h-10.849v3.616
			H480.215z M485.427,86.254c0.853-5.105,0.957-10.21,0.957-15.314V47.754h-5.425v23.079c0,5.212-0.105,10.314-0.744,15.527h5.212
			V86.254L485.427,86.254z M504.464,86.254v-38.5h-5.424v38.5H504.464z M527.862,46.797h-10.104V34.034
			c0-1.276,1.063-2.446,2.446-2.446h5.424c1.276,0,2.34,1.17,2.34,2.446v12.763H527.862z M517.759,68.174h10.104v14.145h-10.104
			V68.174z M517.759,50.413h10.104v14.146h-10.104V50.413z"/>
		<path id="_x36__1_" fill="#332C2B" d="M561.577,64.345v-2.34h44.351V58.39h-19.25v-5.104h16.91V49.67h-16.91v-5.318h16.91v-3.616
			h-16.91V35.63h19.25v-3.616h-19.463l-1.063-5.637h-9.785l1.063,5.637h-14.355c0.851-1.808,1.595-3.723,2.443-5.637h-10.314
			c-2.233,5.956-4.895,11.271-7.979,17.017h5.852v20.952h9.466L561.577,64.345L561.577,64.345z M551.367,81.894
			c0,2.233,1.914,4.147,4.146,4.147h45.202c2.34,0,4.254-1.914,4.254-4.147V70.408c0-2.342-1.914-4.148-4.254-4.148h-45.202
			c-2.231,0-4.146,1.808-4.146,4.148V81.894z M595.505,80.086c0,1.273-1.063,2.445-2.446,2.445h-29.673
			c-1.274,0-2.444-1.063-2.444-2.445v-7.871c0-1.275,1.063-2.339,2.444-2.339h29.673c1.276,0,2.446,1.063,2.446,2.339V80.086z
			 M561.684,44.457h15.424v5.315h-15.424V44.457z M561.684,53.391h15.424v5.105h-15.424V53.391z M561.684,35.736h15.424v5.105
			h-15.424V35.736z"/>
		<path fill="#474443" d="M151.468,109.44h64.239v1.914h-64.239c-0.212,0-0.319-0.104-0.319-0.212v-1.383
			c0-0.106,0.106-0.212,0.319-0.212V109.44z M188.161,125.393h27.972v1.915h-27.972c-0.106,0-0.319-0.104-0.319-0.212v-1.383
			c0-0.107,0.106-0.213,0.319-0.213V125.393z M544.667,125.393h23.504c0.106,0,0.319,0.107,0.319,0.213v1.385
			c0,0.105-0.106,0.213-0.319,0.213h-23.504v-1.914V125.393z M167.209,117.417h48.924v1.915h-48.924
			c-0.212,0-0.319-0.106-0.319-0.213v-1.384c0-0.105,0.106-0.213,0.319-0.213V117.417z M544.667,117.417h44.456
			c0.213,0,0.319,0.105,0.319,0.213v1.383c0,0.106-0.106,0.213-0.319,0.213h-44.456v-1.914V117.417z M544.667,109.44h60.197
			c0.213,0,0.317,0.107,0.317,0.213v1.385c0,0.104-0.104,0.213-0.317,0.213h-60.197v-1.914V109.44z"/>
	</g>
	
		<image overflow="visible" enable-background="new    " width="168" height="180" xlink:href="logo_20230113_uugai.com_16736169.png"  transform="matrix(0.9155 0 0 0.914 -3.8223 -11.9583)">
	</image>
</g>
</svg>
