<?xml version="1.0" encoding="utf-8"?>
<!-- Generator: Adobe Illustrator 16.0.0, SVG Export Plug-In . SVG Version: 6.00 Build 0)  -->
<!DOCTYPE svg PUBLIC "-//W3C//DTD SVG 1.1//EN" "http://www.w3.org/Graphics/SVG/1.1/DTD/svg11.dtd">
<svg version="1.1" id="图层_1" xmlns="http://www.w3.org/2000/svg" xmlns:xlink="http://www.w3.org/1999/xlink" x="0px" y="0px"
	 width="605.945px" height="140.602px" viewBox="0 0 605.945 140.602" enable-background="new 0 0 605.945 140.602"
	 xml:space="preserve">
<g>
	<path id="_x35_" fill="#332C2B" d="M319.726,106.216c-1.383,2.34-2.34,3.935-2.872,4.785c-0.53,0.852-0.955,1.489-1.17,2.021
		c-0.213,0.531-0.426,0.853-0.742,1.275c-0.428,0.745-0.854,1.596-1.172,2.553c-0.317,0.854-0.426,1.489-0.213,1.596
		c0.319,0.215,0.64,0,1.063-0.426c0.426-0.529,0.851-0.744,1.274-0.851c0.427,0,0.744-0.212,0.853-0.532
		c0.104-0.318,0.319-0.531,0.532-0.531c0.212-0.104,0.638-0.529,1.274-1.274c0.105-0.106,0.105-0.212,0.212-0.319
		c-0.425,2.021-0.638,4.148-0.742,6.275c-0.106,2.127-0.106,3.614-0.215,4.786c-0.104,1.063,0,2.127,0.106,3.297
		c0.104,1.17,0.319,1.808,0.532,2.021c0.425,0.532,0.744,0.426,0.957,0c0.104-0.213,0.425-0.531,1.17-0.851
		c0.213-0.106,0.213-0.532,0.104-1.276c-0.213-1.596-0.317-3.084-0.317-4.36c0.104-3.51,0.213-5.954,0.317-7.126
		c0.106-1.17,0.213-2.021,0.427-2.553c0.426-0.957,0.213-1.701-0.531-2.231c-0.106-0.106-0.213-0.106-0.319-0.106
		c0.213-0.318,0.426-0.639,0.744-1.063c0.319-0.427,0.532-0.853,0.852-1.172c0.214-0.317,0.531-0.851,0.957-1.487
		c0.319-0.64,0.428-1.17,0.319-1.383c-0.213-0.531-0.532-1.063-0.958-1.597c-0.425-0.425-0.851-0.638-1.275-0.745
		c-0.426,0-0.958,0.428-1.487,1.49L319.726,106.216z M329.403,111.746c-0.318,0.105-0.744,0.213-1.488,0.531
		c-0.745,0.318-1.596,0.531-2.659,0.852c-0.745,0.213-1.17,0.532-1.063,0.957c0.316,1.17,0.638,1.809,1.17,2.128
		c0.316,0.104,0.531,0.319,0.744,0.532s0.639,0.213,1.17,0.213c-0.319,0.637-0.744,1.701-1.276,3.297
		c-0.638,1.595-1.17,2.871-1.808,3.828c-0.532,0.957-1.276,2.659-2.021,4.999c-0.104,0.425-0.104,0.745,0,0.745
		c0.106,0.104,0.319,0,0.426-0.32c0.106-0.213,0.319-0.425,0.532-0.638c0.212-0.106,0.425-0.319,0.531-0.532
		c0.104-0.213,0.213-0.425,0.319-0.531c0.104-0.104,0.213-0.316,0.426-0.426c0.104-0.213,0.316-0.426,0.638-0.638
		c0.532-0.319,1.383-1.702,2.659-4.042c1.276-2.342,2.127-4.041,2.553-5.105l0.853-1.914l2.656-1.063l3.3-1.385
		c0.212-0.105,0.316-0.213,0.316-0.426s0-0.426,0.106-0.531c0.104-0.213,0.104-0.318,0.104-0.426c0-0.106,0-0.317,0-0.426
		c0-0.213-0.104-0.318-0.213-0.426c-0.104-0.105-0.212-0.213-0.316-0.318c-0.106-0.104-0.215-0.213-0.319-0.213
		c-0.106,0-0.213-0.106-0.426-0.213c-0.106-0.106-0.531-0.106-1.063,0.104l-2.021,0.64c0.317-0.957,0.743-1.81,1.17-2.554
		c0.317-0.639,0.104-1.274-0.427-1.913c-0.214-0.215-0.426-0.428-0.639-0.428s-0.317-0.104-0.426-0.212
		c-0.107-0.105-0.319-0.104-0.638-0.104c-0.319,0.104-0.532,0.213-0.745,0.529c-0.212,0.319-0.318,0.532-0.212,0.745
		c0.104,0.212,0.104,0.427-0.106,0.64l-1.702,4.359L329.403,111.746z M331.318,116.213c-0.213,0.104-0.319,0.532-0.319,1.063
		c0,0.531-0.213,1.385-0.744,2.658c-0.426,1.17-0.745,2.66-0.852,4.468c-0.107,1.81,0.104,3.085,0.53,4.042
		c0.427,0.852,0.853,1.488,1.276,1.914c0.853,0.744,2.34,1.17,4.467,1.275c3.297,0.107,5.424-0.105,6.487-0.744
		c0.639-0.426,1.063-0.851,1.489-1.383c0.426-0.638,0.53-1.275,0.213-1.808c-0.106-0.532-0.426-0.853-0.957-1.172
		c-0.426-0.317-0.745-0.638-0.854-1.063c-0.105-0.425-0.212-0.957-0.316-1.383c-0.106-0.427-0.213-0.744-0.426-0.853
		c-0.319,0-0.428,0.319-0.428,0.957c0,0.64,0,1.597,0,2.767c0,0.213-0.425,0.426-1.17,0.745c-0.744,0.317-1.808,0.53-2.978,0.425
		c-2.446,0-3.938-0.425-4.254-1.063c-0.319-0.532-0.427-1.275-0.427-2.127s0.214-1.915,0.53-3.189
		c0.319-1.275,0.641-2.127,1.064-2.555c0.316-0.426,0.425-0.851,0.53-1.383c0.105-0.957-0.427-1.488-1.7-1.701
		c-0.427,0-0.745,0.106-1.064,0.213L331.318,116.213z M339.082,108.556c0.319,0.318,0.744,0.531,1.063,0.638
		c0.428,0.106,0.744,0.106,1.172-0.317c0.638-0.64,0.53-1.598-0.428-2.658c-0.316-0.319-0.851-0.532-1.699-0.639
		c-0.532-0.106-0.957-0.106-1.276,0.213c-0.213,0.316-0.213,0.744,0.104,1.17c0.319,0.639,0.64,1.063,0.957,1.488L339.082,108.556z"
		/>
	<path id="_x36_" fill="#332C2B" d="M363.012,120.361c0.106,1.385,0,2.872-0.212,4.682c-0.104,1.063-0.426,1.914-0.958,2.766
		c-0.638,0.957-1.382,1.811-2.231,2.553c-0.64,0.531-1.385,1.172-2.021,1.811c-0.426,0.425-0.638,0.744-0.638,0.957
		c0.104,0.104,0.316,0.104,0.744-0.107c0.317-0.213,0.851-0.425,1.596-0.638c0.744-0.319,1.382-0.532,1.808-0.745
		c0.428-0.212,0.853-0.531,1.385-0.85c0.529-0.32,1.17-0.957,1.913-1.915c0.427-0.745,0.852-1.702,1.063-2.979
		c0.106-0.852,0.213-1.702,0.213-2.659c0.106-1.063,0.106-1.7,0.106-2.021c0-0.213,0-0.426,0.104-0.639
		c0.106-0.318,0-0.641-0.213-1.063c-0.213-0.319-0.638-0.638-1.383-0.957c-0.531-0.213-0.957-0.213-1.17,0
		c-0.318,0.425-0.318,1.063-0.106,1.915L363.012,120.361L363.012,120.361z M367.479,103.451c-0.53,0.316-1.913,0.639-4.359,1.17
		c-2.446,0.529-4.041,0.744-4.786,0.639c-0.744-0.107-1.276,0-1.382,0.212c-0.106,0.106-0.319,0.532-0.532,1.17l-0.744,2.553
		c-0.213,0.853-0.852,2.979-1.915,6.487c-1.063,3.404-1.914,6.275-2.445,8.615c-0.53,2.34-0.956,3.828-1.171,4.68
		c-0.425,1.598-0.425,2.446-0.104,2.553c0.104,0,0.319-0.213,0.532-0.742c0.213-0.532,0.426-0.957,0.638-1.17
		c0.532-0.428,0.958-1.277,1.276-2.234c0.317-1.063,0.639-2.127,1.063-3.19c0.426-1.063,0.745-2.231,1.064-3.51
		c0.316-1.274,0.638-2.34,0.957-3.188l1.486-4.574c0.641-2.127,1.17-3.615,1.598-4.572c0.53,0,2.34-0.319,5.424-0.957
		c-0.318,0.105-0.425,0.531-0.425,0.957c0,0.531-0.106,1.17-0.319,1.809c-1.276,0.214-2.766,0.427-4.254,0.852
		c-0.957,0.213-1.276,0.639-1.276,1.17c0.106,0.744,0.319,1.17,0.531,1.383c0.639,0.531,1.17,0.744,1.596,0.531
		c0.213-0.105,0.532-0.212,0.957-0.318l1.383-0.213L361.735,116c-0.212,0-0.318,0-0.531,0.104c-0.213-0.426-0.532-0.639-0.853-0.639
		c-0.317,0-0.639,0.107-0.852,0.426c-0.531,0.744-0.744,1.914-0.957,3.51c-0.105,2.871-0.105,4.786-0.105,5.531
		c0.105,0.744,0.214,1.488,0.427,2.127c0.213,0.64,0.529,0.957,0.851,0.957c0.957,0,1.489-0.639,1.489-1.914
		c-0.319-2.872-0.213-5.529,0.213-8.084c2.34-0.426,3.935-0.744,4.573-0.957c0.638-0.213,1.063-0.316,1.17-0.213
		c0.104,0.107,0.213,0.319,0.213,0.641c0.106,2.766,0.106,4.68,0.106,5.528c-0.106,0.853-0.215,1.383-0.532,1.383
		c-0.319,0.106-0.426,0.319-0.319,0.64c0.106,0.426,0.213,0.744,0.426,1.17c-0.317,0.105-0.53,0.213-0.957,0.317
		c-0.426,0.215-0.426,0.64,0,1.276c0.214,0.213,0.531,0.531,0.853,0.854c0.426,0.425,1.063,1.273,2.021,2.656
		c0.957,1.276,1.598,1.811,1.811,1.701c0.316-0.316,0.638-0.744,0.744-1.273c0.426-1.171,0.53-2.021,0.317-2.659
		c-0.104-0.319-0.317-0.64-0.745-0.958c-0.529-0.531-0.957-0.852-1.382-1.063c-0.104-0.105-0.213-0.105-0.318-0.213
		c0.639-0.639,1.063-1.809,1.171-3.297c0.104-0.639,0.104-1.383,0.104-2.34c0-0.854,0-1.596-0.104-2.234
		c0-0.638,0-1.063,0.104-1.486c0.106-0.427,0-0.854-0.213-1.172c-0.532-0.742-1.063-1.274-1.702-1.699
		c-0.316-0.213-0.744-0.107-1.063,0.212c-0.318,0.317-0.744,0.425-1.276,0.425c-0.531,0-1.808,0.107-3.722,0.426
		c0.425-0.638,0.851-1.17,1.063-1.596l0.64-1.063c1.914-0.426,3.723-0.639,5.637-0.742c0.318,0,0.639,0,0.957,0.104
		c0.532,0.213,1.063,0.106,1.596-0.426c0.106-0.105,0.213-0.318,0.319-0.425l0.213-0.64c0-0.213-0.213-0.639-0.854-1.275
		c-0.212-0.318-1.063-0.427-2.552-0.318c-1.383,0.106-2.553,0.213-3.189,0.318c0-0.105,0-0.212,0-0.318s0-0.319,0.104-0.531
		c0.106-0.426-0.213-0.852-1.17-1.383c-0.318-0.213-0.638-0.319-0.957-0.319l2.021-0.53c0.639-0.318,1.274-0.428,1.7-0.531
		c0.531,0,0.957-0.319,1.276-0.744c0.318-0.426,0.213-0.958-0.426-1.702c-0.426-0.426-0.853-0.745-1.063-0.851
		c-0.317,0-0.638,0.104-0.851,0.316L367.479,103.451z"/>
	<path id="_x37_" fill="#332C2B" d="M393.11,110.151l4.999-0.851c0.317-0.106,0.743-0.106,1.063-0.213
		c0.213-0.106,0.426-0.318,0.639-0.744c0.215-0.426,0.318-0.957,0.106-1.489c-0.213-0.53-0.639-0.957-1.17-1.063
		c-0.213,0-0.426-0.106-0.745-0.319c-0.425-0.104-0.744-0.104-0.851,0c-0.215,0.213-0.64,0.319-1.172,0.426c0-0.104,0-0.104,0-0.213
		c0-0.425-0.213-1.063-0.53-1.702c-0.318-0.742-0.853-1.17-1.275-1.273c-0.532-0.107-0.852,0-1.17,0.425l-2.021,3.51
		c-0.214,0-0.53,0-1.171,0.106c-0.529,0.104-1.17,0.104-1.808,0.213c-0.639,0-0.957,0.104-1.17,0.318
		c-0.319,0.53-0.213,1.063,0.213,1.809l0.531,0.744c0.213,0.213,0.426,0.426,0.639,0.532c0.212,0.104,0.425,0.213,0.531,0.317
		c-0.853,1.488-1.701,2.979-2.34,4.467c-0.531,1.063-1.17,1.811-2.021,2.445c-0.426,0.213-0.744,0.533-0.744,0.958
		s0.212,0.957,0.64,1.489c0.426,0.531,0.851,0.851,1.17,0.851c0.317,0,0.957,0,1.702-0.213c1.595-0.212,2.871-0.425,3.722-0.532
		c0.852-0.104,1.596-0.213,2.128-0.316v2.979c-0.426,0-0.958,0.105-1.489,0.212c-3.829,0.532-6.169,0.958-7.23,1.17
		c-1.063,0.215-1.81,0.427-2.446,0.64s-0.957,0.426-1.063,0.745c-0.105,0.317,0,0.851,0.427,1.487
		c0.425,0.744,0.744,1.17,1.17,1.275c0.212,0.105,0.851,0,1.808-0.213c2.021-0.637,4.573-1.17,7.445-1.701
		c0.425-0.105,0.851-0.105,1.383-0.213c0,5.104,0.212,7.658,0.638,7.764c0.215,0,0.428-0.212,0.532-0.744
		c0.105-0.529,0.425-0.851,0.853-1.17c0.425-0.316,0.851-0.744,0.957-1.273c0.213-0.532,0.317-1.277,0.317-2.447
		c0-1.063,0-1.914,0.106-2.658c1.382-0.213,3.084-0.317,4.998-0.426c1.915-0.105,3.189,0,3.723,0.213
		c0.532,0.318,0.957,0.318,1.276,0.318c0.317-0.105,0.744-0.212,1.063-0.427c0.106-0.104,0.319-0.425,0.319-1.063
		c0.104-1.17-0.319-1.914-1.383-2.127c-0.64-0.106-1.17-0.319-1.489-0.531c-0.318-0.213-0.531-0.319-0.638-0.213
		c-0.106,0.105-0.428,0.213-0.853,0.318c-0.426,0.104-1.383,0.213-2.872,0.317c-1.488,0.106-2.871,0.212-4.146,0.427v-2.021
		c0-0.426,0-0.852,0-1.063c0.638-0.105,1.382-0.215,2.444-0.318c1.063-0.107,2.128-0.213,3.19-0.426
		c0.531-0.106,0.851-0.213,0.957-0.641c0-0.426-0.106-0.957-0.319-1.486c-0.213-0.532-0.425-0.957-0.638-1.064
		c-0.213-0.104-0.639-0.104-1.276,0c-0.639,0.107-1.701,0.32-3.188,0.532c-0.426,0-0.745,0.104-1.063,0.213
		c0-0.425,0.105-0.745,0.212-1.17c0.106-0.745,0.106-1.276-0.104-1.595c-0.957-1.385-1.914-1.811-2.658-1.49
		c-0.745,0.32-1.063,1.277-0.852,2.766c0,0.531,0,1.276,0.104,2.127c-0.744,0.107-1.382,0.213-2.127,0.428
		c-0.957,0.104-1.595,0.104-1.701-0.215c-0.104-0.213,0-0.639,0.426-1.383l3.402-5.424L393.11,110.151z"/>
	<path id="_x38_" fill="#332C2B" d="M423.315,127.7c-0.105-6.597-0.105-11.274,0.104-14.358c0.213-2.978,0.319-4.785,0.532-5.424
		c0.213-0.641,0.213-1.063,0.104-1.383c-0.317-0.744-0.957-1.385-1.915-1.914c-0.316-0.106-0.529-0.106-0.742,0.104
		c-0.531,0.532-0.957,0.853-1.489,0.853c-0.425,0.104-0.853,0.104-1.063,0.104h-0.743c-0.214-0.213-0.427-0.425-0.743-0.532
		c-0.319-0.104-0.745,0.107-1.17,0.745c-0.319,0.427-0.428,1.17-0.319,2.233c0.104,0.957,0,2.021-0.106,3.188
		c-0.213,1.172-0.317,2.233-0.426,3.19c-0.105,0.957-0.212,1.914-0.531,2.766c-0.213,0.854-0.53,2.446-0.957,4.786
		c-0.426,2.233-0.743,4.042-1.17,5.425c-0.745,2.658-0.958,3.937-0.53,4.041c0.317,0.105,0.53-0.213,0.851-0.956
		c0.213-0.743,0.532-1.384,0.852-2.021l0.853-1.914c0.426-0.852,0.851-2.233,1.383-4.146c0.318,0,1.063-0.105,2.233-0.531
		s1.808-0.641,2.021-0.744c0,2.445,0,4.254,0,5.317c0,1.063,0,1.7-0.104,1.808c-0.319,0.532-0.957,0.639-1.914,0.426
		c-0.319-0.104-0.428,0-0.532,0.106c-0.106,0.104,0,0.425,0.319,0.745c0.317,0.316,0.426,0.638,0.529,0.85
		c0,0.213,0.213,0.533,0.532,0.958s0.638,0.638,0.853,0.745c0.213,0,0.426-0.107,0.743-0.426c0.318-0.319,0.853-0.744,1.701-1.17
		c0.426-0.215,0.641-0.532,0.853-0.957c0.213-0.428,0.213-0.957,0.213-1.915H423.315z M420.231,118.448
		c-2.342,0.639-3.616,1.063-3.616,1.063c0.104-0.745,0.317-1.382,0.317-1.915c0.106-1.063,0.214-1.914,0.319-2.658h0.213
		c1.382-0.316,2.339-0.639,2.871-0.957c-0.104,1.488-0.213,2.979-0.213,4.36L420.231,118.448z M420.551,111.427
		c-0.317,0.106-0.639,0.213-1.274,0.318l-1.489,0.426c0-1.063,0.104-2.021,0.426-2.979c0.106-0.425,0.213-0.743,0.213-1.274
		c0.744-0.213,1.276-0.426,1.488-0.531c0.319-0.107,0.532-0.107,0.639-0.107c0.106,0.107,0.106,0.532,0.106,1.385
		c-0.106,0.852-0.106,1.702-0.106,2.657L420.551,111.427L420.551,111.427z M429.165,105.578c-0.318-0.318-0.638-0.428-1.063-0.428
		c-0.425,0-0.742,0.107-0.957,0.428c-0.213,0.317-0.425,0.744-0.425,1.274c-0.852,4.147-1.274,8.401-1.383,12.656
		c0,1.489-0.104,2.978-0.213,4.573c-0.107,1.595,0,3.402,0.213,5.531c0.106,0.742,0.318,1.273,0.531,1.699
		c0.213,0.213,0.426,0.318,0.639,0.318s0.318-0.105,0.425-0.425c0.107-0.32,0.532-0.532,1.17-0.957
		c0.106-0.106,0.215-0.425,0.215-1.063c0.957-0.213,1.7-0.317,2.021-0.213c0.319,0,0.854-0.104,1.489-0.316
		c0.639-0.215,1.063-0.428,1.489-0.641c0.529,0.531,1.274,1.17,2.444,1.811c1.17,0.637,1.914,1.17,2.446,1.382
		c0.531,0.213,0.851,0.213,0.957,0.104l0.319-0.426c0.104-0.213,0.212-0.317,0.316-0.426c0.106-0.105,0.106-0.212,0.213-0.212
		c0.319,0,0.532,0,0.853,0.212c0.958,0.639,1.489,0.426,1.702-0.425c0-0.106-0.213-0.319-0.744-0.532
		c-0.532-0.213-0.854-0.425-0.958-0.531c-0.105-0.104-0.318-0.316-0.638-0.531c-0.64-0.53-1.172-0.852-1.81-1.275l-1.915-1.17
		l-0.957-0.64c0.532-1.595,0.957-2.872,1.063-3.828c0.213-1.063,0.317-1.913,0.53-2.554c0.214-0.638,0.318-1.273,0.427-1.701
		c0.105-0.426,0-0.742-0.318-0.957c-0.319-0.213-0.745-0.529-1.383-0.852c-0.64-0.318-1.276-0.213-2.127,0.32
		c-0.426,0.425-0.958,0.637-1.383,0.85c-0.428,0.107-1.063,0.426-1.915,0.853c-0.531,0.104-0.744,0.317-0.853,0.53
		c-0.105,0.213,0.106,0.532,0.426,1.064c0.318,0.53,0.64,0.744,1.063,0.638c0.531-0.104,1.489-0.638,2.659-1.595
		c0.212-0.213,0.425-0.213,0.529-0.213c0.106,0.104,0.106,0.316,0,0.744c-0.317,1.809-0.742,3.297-1.063,4.571
		c-0.106-0.104-0.213-0.317-0.426-0.425c-1.17-1.49-2.021-2.34-2.767-2.66c-0.744-0.316-1.17-0.638-1.383-0.85
		c-0.213-0.213-0.426-0.426-0.639-0.426c0.213-5.531,0.639-9.041,1.274-10.316c0.214,0,0.532,0,0.959-0.106
		c0.743-0.317,1.913-0.851,3.511-1.7c0.316-0.106,0.53-0.213,0.638-0.106c0,0.106,0,0.745-0.105,1.702
		c-0.105,1.063-0.318,2.021-0.743,2.871c-0.106,0.318-0.319,0.531-0.428,0.639l-0.426,0.105c-0.531,0-0.957-0.105-1.382-0.213
		c-0.426-0.105-0.639-0.105-0.745,0c-0.104,0.105,0,0.213,0.106,0.426c0.317,0.318,0.426,0.532,0.426,0.744
		c-0.106,0.105,0,0.532,0.213,1.063c0.212,0.641,0.425,0.957,0.638,1.063c0.214,0.104,0.532,0.104,0.853-0.106
		c0.426-0.104,0.745-0.213,0.958-0.213c0.212,0,0.638-0.104,0.957-0.426c0.851-0.531,1.487-1.701,2.127-3.51
		c0.213-0.744,0.318-1.597,0.426-2.232l0.105-1.702c0.104-0.638-0.427-1.383-1.488-2.231c-0.319-0.214-0.532-0.214-0.854,0
		c-0.212,0.213-0.529,0.316-0.957,0.316c-0.316,0-0.742,0-1.274,0.107c-0.531,0.104-1.063,0.316-1.81,0.316
		c-0.742,0.106-1.383,0.215-2.127,0.319L429.165,105.578z M428.102,121.425c0.319,0.318,0.641,0.531,0.958,0.85
		c0.318,0.32,0.64,0.958,1.172,1.915c0.529,0.958,1.063,1.702,1.486,2.128c-0.744,0.639-1.914,1.275-3.51,2.021
		c-0.213-2.232-0.213-4.254-0.106-6.274c0-0.213,0-0.53,0-0.745V121.425L428.102,121.425z"/>
	<path fill="#332C2B" d="M204.859,11.859v38.074h4.999v-3.615h-19.357V36.32c0-1.383,1.064-2.443,2.234-2.443h8.295
		c4.999,0,7.445-1.811,8.296-5.957h-8.934c-1.17,2.232-2.872,2.447-6.275,2.447h-8.615c-2.021,0-3.829,1.912-3.829,4.254v37.225
		c0,5.318,0,10.955-1.808,16.272h8.721c1.595-5.104,1.808-10.954,1.808-16.272V50.041h5.637v38.075h8.721L204.859,11.859z
		 M157.637,86.254h7.551c2.233,0,4.042-1.914,4.042-4.254V62.112h9.785v-3.614h-9.785V52.01h10.104v-3.616h-3.616l1.382-9.678
		h-8.934l-1.489,9.678h-4.254l-1.276-9.678h-8.934l1.383,9.678h-3.616v3.616h9.998v6.487h-9.679v3.614h9.679v18.295
		c0,1.383-0.851,2.232-2.127,2.232h-0.212v3.615H157.637z M178.908,35.842v-3.616h-9.572v-6.169h-9.466v6.169h-9.572v3.616H178.908z
		 M178.802,84.659c-0.851-6.809-1.489-13.294-1.702-19.25h-6.594c0.212,6.381,0.638,12.975,1.489,19.25H178.802z M156.786,84.659
		c0.851-6.274,1.276-12.868,1.489-19.25h-6.594c-0.213,5.956-0.851,12.441-1.595,19.25h6.807H156.786z"/>
	<path id="_x31_" fill="#332C2B" d="M226.13,86.149v-9.041h11.593v3.084c0,1.277-1.063,2.447-2.446,2.447h-2.233v3.51h9.998
		c2.233,0,4.254-1.809,4.254-4.146V55.837c0-2.34-1.915-4.148-4.254-4.148h-22.335c-2.34,0-4.148,1.81-4.148,4.148v30.312H226.13z
		 M216.239,46.052c-0.213,0.745-0.106,1.489,0.319,2.127c0.426,0.638,1.17,0.958,1.915,0.958h26.908
		c0.745,0,1.489-0.319,1.915-0.958c0.532-0.745,0.532-1.489,0.425-2.127l-3.403-11.593h-9.572l2.765,9.465
		c0.106,0.426,0.106,0.851-0.106,1.063c-0.213,0.319-0.532,0.532-1.064,0.532h-8.402c-0.425,0-0.745-0.104-0.957-0.532
		c-0.213-0.213-0.319-0.638-0.213-1.063l5.85-17.548h-9.891l-6.488,19.567v0.107L216.239,46.052L216.239,46.052z M275.799,82.107
		h-13.933c-1.276,0-2.446-1.17-2.446-2.444v-22.23h-9.572v24.037c0,2.34,1.808,4.254,4.148,4.254h21.697v-3.616H275.799z
		 M275.799,51.051h-13.933c-1.276,0-2.446-1.063-2.446-2.446V26.376h-9.572v24.036c0,2.34,1.808,4.146,4.148,4.146h21.697v-3.616
		L275.799,51.051z M268.992,42.861c2.978-4.254,5.105-8.721,6.807-13.294h-8.296c-1.915,4.682-3.935,8.51-7.339,13.294h8.934
		H268.992z M268.992,73.811c2.978-4.254,5.105-8.721,6.807-13.294h-8.296c-1.915,4.682-3.935,8.402-7.339,13.294h8.934H268.992z
		 M226.13,57.751c0-1.276,1.063-2.446,2.446-2.446h6.807c1.276,0,2.446,1.063,2.446,2.446v5.211h-11.593v-5.211H226.13z
		 M226.13,66.579h11.593v7.019H226.13V66.579z"/>
	<path id="_x32_" fill="#332C2B" d="M319.298,86.149h7.552c2.342,0,4.36-1.809,4.36-4.146V64.133h5.637
		c2.446,0,4.469-1.808,4.469-4.148V43.819c0-2.34-1.914-4.146-4.469-4.146H327.7l1.596-6.275h-9.998l-1.595,6.275h-1.915
		c-2.446,0-4.467,1.808-4.467,4.146v16.166c0,2.233,2.021,4.148,4.467,4.148h6.063v17.229c0,0.641-0.638,1.172-1.274,1.172H319.3
		L319.298,86.149L319.298,86.149z M309.407,34.034c0-1.276,1.063-2.446,2.446-2.446h30.099v-3.616H303.77
		c-2.34,0-4.358,1.915-4.358,4.254v38.819c0,6.594-0.106,11.168-1.489,15.104h10.21c1.276-3.83,1.276-9.783,1.276-14.996
		L309.407,34.034L309.407,34.034z M291.646,86.254c3.084-6.381,5.211-14.996,6.488-23.93h-9.572
		c-1.17,9.146-3.297,16.06-6.594,23.93H291.646z M342.059,86.149c-1.063-5.85-1.596-12.02-1.596-18.294h-7.764
		c0.104,6.274,0.426,12.552,1.596,18.294h7.87H342.059z M317.81,86.149c1.488-5.85,2.128-12.02,2.658-18.294h-7.87
		c-0.213,6.274-1.17,12.444-2.553,18.294H317.81z M298.134,57.751l-4.255-14.358h-9.785l4.254,14.358h9.679H298.134z
		 M297.283,39.458l-4.148-13.294h-9.785l4.147,13.294h9.679H297.283z M323.446,60.517c-1.383,0-2.446-1.063-2.446-2.446v-4.467
		h10.849v4.467c0,1.276-1.17,2.446-2.444,2.446H323.446z M331.849,49.987H321v-4.358c0-1.276,1.17-2.446,2.446-2.446h5.956
		c1.274,0,2.444,1.063,2.444,2.446L331.849,49.987L331.849,49.987z"/>
	<path id="_x33_" fill="#332C2B" d="M407.786,80.086c-17.019-0.213-24.887-5.637-24.887-14.997V62.43h-9.785v2.659
		c0,9.36-7.87,14.784-24.889,14.997v5.955c14.679-0.213,24.464-3.189,29.675-8.508c5.212,5.424,14.89,8.295,29.777,8.508v-5.955
		H407.786z M361.734,75.833V61.899c0-1.274,1.063-2.444,2.444-2.444h27.761c1.274,0,2.444,1.063,2.444,2.444v13.935h9.572V60.091
		c0-2.234-1.809-4.254-4.148-4.254H356.31c-2.232,0-4.146,1.915-4.146,4.254v15.741L361.734,75.833L361.734,75.833z M407.893,49.137
		h-17.017c-1.276,0-2.446-1.063-2.446-2.446v-6.913c5.956-2.021,11.912-4.359,17.764-6.911V28.61
		c-5.852,2.554-11.808,4.894-17.764,6.913V26.27h-9.57v12.337c-3.299,0.957-6.487,1.81-9.784,2.554v4.254
		c3.188-0.745,6.485-1.597,9.784-2.555v5.531c0,2.34,1.915,4.254,4.255,4.254h24.778v-3.613V49.137L407.893,49.137z M364.394,52.859
		V33.928h-2.231c1.273-2.446,2.445-4.893,3.51-7.551h-9.892c-1.914,5.211-4.682,10.21-7.657,15.208h6.807v11.272h9.572
		L364.394,52.859L364.394,52.859z"/>
	<path id="_x34_" fill="#332C2B" d="M414.168,38.395h10.636l-7.977,16.166c-0.532,1.17-0.532,2.446,0.212,3.51
		c0.745,1.063,1.809,1.597,3.085,1.597H439.8v11.167h-25.523v3.617H439.8v11.697h9.572V74.45h24.567v-3.617h-24.567V59.666h22.547
		V56.05h-22.547V44.244H439.8V56.05h-11.912c-0.426,0-0.744-0.213-1.063-0.532c-0.213-0.425-0.213-0.851-0.106-1.169l7.766-15.954
		h39.353v-3.616H436.29l4.147-8.296h-9.572l-4.147,8.296h-12.55V38.395L414.168,38.395z"/>
	<path id="_x35__1_" fill="#332C2B" d="M505.953,86.042h34.034v-3.615h-2.128V32.332c0-2.34-1.914-4.254-4.36-4.254h-21.165
		c-2.34,0-4.254,1.914-4.254,4.254v50.094h-2.127V86.042z M480.215,32.545h7.979v9.357h-7.979v3.512h7.979v40.84h9.146v-40.84h7.978
		v-3.512h-7.978v-9.357h1.276c4.786,0,7.339-2.233,8.613-6.488H496.38c-1.063,1.915-2.765,2.872-5.424,2.872h-10.849v3.616H480.215z
		 M485.427,86.254c0.853-5.105,0.957-10.21,0.957-15.314V47.754h-5.425v23.079c0,5.212-0.105,10.314-0.744,15.527h5.212V86.254
		L485.427,86.254z M504.464,86.254v-38.5h-5.424v38.5H504.464z M527.862,46.797h-10.104V34.034c0-1.276,1.063-2.446,2.446-2.446
		h5.424c1.276,0,2.34,1.17,2.34,2.446v12.763H527.862z M517.759,68.174h10.104v14.145h-10.104V68.174z M517.759,50.413h10.104
		v14.146h-10.104V50.413z"/>
	<path id="_x36__1_" fill="#332C2B" d="M561.577,64.345v-2.34h44.351V58.39h-19.25v-5.104h16.91V49.67h-16.91v-5.318h16.91v-3.616
		h-16.91V35.63h19.25v-3.616h-19.463l-1.063-5.637h-9.785l1.063,5.637h-14.355c0.851-1.808,1.595-3.723,2.443-5.637h-10.314
		c-2.233,5.956-4.895,11.271-7.979,17.017h5.852v20.952h9.466L561.577,64.345L561.577,64.345z M551.367,81.894
		c0,2.233,1.914,4.147,4.146,4.147h45.202c2.34,0,4.254-1.914,4.254-4.147V70.408c0-2.342-1.914-4.148-4.254-4.148h-45.202
		c-2.231,0-4.146,1.808-4.146,4.148V81.894z M595.505,80.086c0,1.273-1.063,2.445-2.446,2.445h-29.673
		c-1.274,0-2.444-1.063-2.444-2.445v-7.871c0-1.275,1.063-2.339,2.444-2.339h29.673c1.276,0,2.446,1.063,2.446,2.339V80.086z
		 M561.684,44.457h15.424v5.315h-15.424V44.457z M561.684,53.391h15.424v5.105h-15.424V53.391z M561.684,35.736h15.424v5.105
		h-15.424V35.736z"/>
	<path fill="#474443" d="M151.468,109.44h64.239v1.914h-64.239c-0.212,0-0.319-0.104-0.319-0.212v-1.383
		c0-0.106,0.106-0.212,0.319-0.212V109.44z M188.161,125.393h27.972v1.915h-27.972c-0.106,0-0.319-0.104-0.319-0.212v-1.383
		c0-0.107,0.106-0.213,0.319-0.213V125.393z M544.667,125.393h23.504c0.106,0,0.319,0.107,0.319,0.213v1.385
		c0,0.105-0.106,0.213-0.319,0.213h-23.504v-1.914V125.393z M167.209,117.417h48.924v1.915h-48.924
		c-0.212,0-0.319-0.106-0.319-0.213v-1.384c0-0.105,0.106-0.213,0.319-0.213V117.417z M544.667,117.417h44.456
		c0.213,0,0.319,0.105,0.319,0.213v1.383c0,0.106-0.106,0.213-0.319,0.213h-44.456v-1.914V117.417z M544.667,109.44h60.197
		c0.213,0,0.317,0.107,0.317,0.213v1.385c0,0.104-0.104,0.213-0.317,0.213h-60.197v-1.914V109.44z"/>
</g>
<g>
	<path fill-rule="evenodd" clip-rule="evenodd" fill="#FEFEFE" d="M137.385,70.518c0,21.4-0.038,42.802,0.058,64.201
		c0.01,2.195-0.49,2.701-2.694,2.697c-42.801-0.076-85.602-0.075-128.403-0.001c-2.193,0.004-2.701-0.488-2.697-2.692
		c0.076-42.801,0.076-85.602,0-128.403c-0.003-2.192,0.489-2.7,2.692-2.697c42.801,0.077,85.602,0.076,128.403,0.001
		c2.194-0.003,2.708,0.488,2.698,2.692C137.347,27.717,137.385,49.117,137.385,70.518z"/>
	<path fill-rule="evenodd" clip-rule="evenodd" fill="#AA0318" d="M130.347,135.367c-2.49,1.668-5.248,1.042-7.947,0.927
		c-1.049-0.312-2.229-0.43-2.598-1.754c-1.05-5.329-0.43-10.716-0.49-16.075c-0.092-8.279-0.226-16.567,0.1-24.84
		c0.097-2.45-0.373-5.96,4.039-5.565c1.824-0.03,3.645-0.039,5.331,0.824c2.368,0.978,2.882,2.976,2.897,5.25
		c0.082,12.235,0.059,24.471,0.012,36.705C131.685,132.481,131.33,134.016,130.347,135.367z"/>
	<path fill-rule="evenodd" clip-rule="evenodd" fill="#B00218" d="M109.425,84.51c3.207,0.89,6.414,1.779,9.621,2.668
		c-1.215,2.581-1.404,5.318-1.396,8.126c0.037,11.408,0.046,22.817-0.008,34.226c-0.01,2.152,0.338,4.438-1.34,6.26
		c-10.24,0.889-10.249,0.889-10.246-9.32c0.004-11.979-0.1-23.96,0.078-35.938C106.169,88.148,105.419,84.908,109.425,84.51z"/>
	<path fill-rule="evenodd" clip-rule="evenodd" fill="#B30217" d="M109.425,84.51c-2.311,0.952-1.938,2.988-1.938,4.854
		c-0.008,13.691,0.167,27.387-0.105,41.073c-0.086,4.299,1.277,5.815,5.404,5.189c1.139-0.172,2.326-0.03,3.491-0.034
		c1.466-1.156,2.933-1.155,4.398,0c0.575,0.233,1.149,0.468,1.725,0.702c-5.96,0.052-11.925-0.019-17.877,0.215
		c-2.423,0.096-3.3-0.716-3.554-3.045c-0.298-2.726-0.984-5.408-1.502-8.109c-2.357-13.666-1.152-27.418-0.957-41.144
		c0.017-1.162,0.166-2.352,1.09-3.245C102.875,82.148,106.15,83.328,109.425,84.51z"/>
	<path fill-rule="evenodd" clip-rule="evenodd" fill="#C50115" d="M64.562,135.599c-2.108-8.962-6.819-16.667-11.73-24.274
		c-1.128-2.979-0.36-6.092-0.638-9.132c1.072-2.2,2.417-4.087,5.102-4.432c1.611-0.708,3.243-0.462,4.877-0.102
		c5.903,2.003,8.517,7.054,11.175,12.063c0.784,6.844,0.285,13.711,0.302,20.565c0.012,5.453-0.521,5.823-6.11,5.732
		C66.534,136.003,65.481,136.245,64.562,135.599z"/>
	<path fill-rule="evenodd" clip-rule="evenodd" fill="#DB0013" d="M24.544,53.903c-1.764,0.196-3.478,0.078-5.063-0.826
		c-1.576-2.007-1.363-4.393-1.369-6.71c-0.025-11.223-0.032-22.445-0.003-33.667c0.021-7.973,0.412-8.287,8.565-7.39
		c1.311,1.424,1.292,3.222,1.3,4.965c0.057,12.868,0.143,25.736-0.079,38.601C27.861,50.909,28.821,54.368,24.544,53.903z"/>
	<path fill-rule="evenodd" clip-rule="evenodd" fill="#D50114" d="M38.861,58.289c-2.589-0.413-4.95-1.485-7.313-2.546
		c-0.495-15.596-0.186-31.194-0.14-46.792c0.004-1.317,0.23-2.626,1.221-3.645c7.177-0.779,7.646-0.431,7.674,6.526
		c0.053,13.418,0.042,26.836-0.007,40.254C40.287,54.234,40.603,56.517,38.861,58.289z"/>
	<path fill-rule="evenodd" clip-rule="evenodd" fill="#D80113" d="M32.728,5.445c0,15.157,0.019,30.314-0.028,45.471
		c-0.005,1.655,0.662,3.566-1.152,4.828c-2.43-0.251-4.777-0.815-7.003-1.84c2.939-0.507,1.984-2.851,1.991-4.548
		c0.062-14.635,0.036-29.271,0.036-43.907c0.591-0.518,1.313-0.423,2.013-0.435C29.963,5.182,31.419,4.612,32.728,5.445z"/>
	<path fill-rule="evenodd" clip-rule="evenodd" fill="#CF0114" d="M51.841,64.471c-2.867-1.464-5.734-2.929-8.601-4.393
		c-0.606-0.875-0.846-1.845-0.776-2.904c0.683-10.224,0.131-20.46,0.341-30.689c0.03-1.459,0.01-2.943,0.736-4.276
		c0.676-1.244,1.446-1.316,2.235-0.078c1.316,6.011,5.193,10.91,7.221,16.612c2.415,7.489,1.219,15.171,1.155,22.784
		C54.143,62.829,53.958,64.557,51.841,64.471z"/>
	<path fill-rule="evenodd" clip-rule="evenodd" fill="#E00012" d="M12.981,52.142c-1.04-0.063-2.08-0.128-3.12-0.192
		c-1.347-1.389-1.348-3.17-1.355-4.91c-0.048-11.491-0.052-22.98-0.004-34.471C8.51,10.66,8.76,8.8,9.497,7.025
		c1.763-1.934,4.058-2.345,6.52-2.278c1.421,1.358,1.388,3.164,1.396,4.898c0.064,12.544,0.13,25.089-0.044,37.632
		C17.333,49.906,17.631,53.412,12.981,52.142z"/>
	<path fill-rule="evenodd" clip-rule="evenodd" fill="#D20114" d="M45.777,22.131c-2.766-0.771-1.548,1.472-1.559,2.327
		c-0.099,7.554-0.065,15.11-0.054,22.666c0.006,4.342,0.204,8.695-0.924,12.955c-1.615-0.216-3.069-0.825-4.379-1.789
		c0.008-15.6,0.017-31.2,0.022-46.799c0.002-6.051-0.001-6.051-6.155-6.045c-1.466-0.004-2.932-0.009-4.397-0.014
		c-0.285-0.153-0.379-0.305-0.285-0.458c0.094-0.152,0.189-0.229,0.285-0.229c4.084-0.05,8.715-1.33,12.106,0.179
		c3.807,1.692,2.121,7.262,3.615,10.919C44.869,17.84,45.217,20.028,45.777,22.131z"/>
	<path fill-rule="evenodd" clip-rule="evenodd" fill="#B70217" d="M99.601,80.966c-0.045,14.797-0.088,29.592-0.133,44.388
		c-2.628-6.781-5.256-13.564-7.885-20.347c-2.211-7.714-1.205-15.551-0.85-23.355c0.099-2.184,1.15-3.576,3.621-3.247
		C96.25,78.959,98.028,79.752,99.601,80.966z"/>
	<path fill-rule="evenodd" clip-rule="evenodd" fill="#AB0318" d="M124.98,32.739c-3.247-0.791-6.129-2.301-8.712-4.404
		c-1.204-1.791-1.421-3.814-1.341-5.889c0.221-5.683-0.512-11.384,0.318-17.057c2.477-0.76,5.019-0.21,7.527-0.376
		c4.787,0.097,5.316,0.498,5.422,5.122c0.138,6.119,0.217,12.247-0.069,18.359C128.039,30.348,128.63,33.278,124.98,32.739z"/>
	<path fill-rule="evenodd" clip-rule="evenodd" fill="#A60419" d="M130.347,135.367c0.001-13.39-0.001-26.779,0.005-40.169
		c0.001-2.239,0.294-4.543-1.57-6.314c7.694-0.021,7.694-0.021,7.694,7.508c0,9.227,0.037,18.452-0.014,27.677
		C136.435,128.884,134.805,132.91,130.347,135.367z"/>
	<path fill-rule="evenodd" clip-rule="evenodd" fill="#C20216" d="M78.123,41.634c-3.07-2.378-4.912-5.664-6.657-9.021
		c-0.895-7.263-0.331-14.554-0.366-21.83c-0.01-2.049-0.131-4.047-0.527-6.042c0.434-0.049,0.869-0.149,1.303-0.14
		c8.529,0.182,6.23-1.46,8.369,6.926c0.617,5.791,0.564,11.586,0.097,17.378c-3.284,3.975-1.552,7.932,0.065,11.892
		C79.833,41.592,79.16,42.11,78.123,41.634z"/>
	<path fill-rule="evenodd" clip-rule="evenodd" fill="#DC0013" d="M18.742,108.998c2.814,0.971,5.793,1.569,8.139,3.601
		c-1.181,5.564-0.548,11.206-0.73,16.813c-0.07,2.13,0.316,4.361-1.144,6.245c-2.965,0.677-5.95,0.397-8.933,0.178
		c-1.461-1.357-1.327-3.182-1.354-4.914c-0.093-6.146,0.175-12.301-0.135-18.437C14.416,109.11,15.87,108.387,18.742,108.998z"/>
	<path fill-rule="evenodd" clip-rule="evenodd" fill="#E30113" d="M9.497,7.025c1.426,1.71,0.278,3.619,0.295,5.396
		C9.92,25.596,9.861,38.773,9.861,51.949c-4.128,0.887-5.513-0.556-5.36-4.937c0.346-9.945,0.125-19.909,0.102-29.865
		C4.594,12.961,5.801,9.401,9.497,7.025z"/>
	<path fill-rule="evenodd" clip-rule="evenodd" fill="#C50216" d="M70.572,4.741c0.42,0.9,2.072,0.347,2.044,1.869
		c-0.153,7.991-0.229,15.983-0.396,23.973c-0.014,0.681-0.492,1.353-0.755,2.03c-4.921-7.693-9.302-15.596-11.187-24.706
		c-0.603-2.916,0.1-3.62,2.859-3.36C65.6,4.78,68.093,4.69,70.572,4.741z"/>
	<path fill-rule="evenodd" clip-rule="evenodd" fill="#D80113" d="M24.815,135.591c0-6.442-0.003-12.885,0-19.327
		c0-1.604-0.252-3.362,2.066-3.665c4.182,2.021,7.545,5.021,10.359,8.675c0.048,3.798-0.687,7.544-0.684,11.345
		c0.001,2.485-1.319,3.71-3.939,3.427C30.027,135.764,27.375,136.478,24.815,135.591z"/>
	<path fill-rule="evenodd" clip-rule="evenodd" fill="#AC0318" d="M120.676,135.592c-1.466,0-2.933,0-4.398,0
		c0-14.735-0.004-29.472,0.005-44.207c0.002-1.985-0.538-4.37,2.764-4.207c1.527,0,3.043,0.057,4.404,0.882
		c-3.172,0.757-2.752,3.344-2.758,5.607C120.659,107.642,120.676,121.616,120.676,135.592z"/>
	<path fill-rule="evenodd" clip-rule="evenodd" fill="#C20317" d="M64.562,135.599c7.743,0.004,7.542-0.003,7.806-7.603
		c0.212-6.092-1.204-12.288,0.979-18.274c5.018,7.315,7.688,15.575,9.606,24.119c0.199,0.892,1.209,2.675-0.908,2.55
		C76.22,136.047,70.31,137.502,64.562,135.599z"/>
	<path fill-rule="evenodd" clip-rule="evenodd" fill="#A6041A" d="M128.603,5.583c4.51,0.45,7.762,4.512,7.842,10.269
		c0.122,8.769,0.032,17.541,0.032,27.359c-2.29-3.444-4.56-5.747-7.011-7.867c-0.888-5.09-0.39-10.224-0.383-15.333
		C129.089,15.189,128.784,10.391,128.603,5.583z"/>
	<path fill-rule="evenodd" clip-rule="evenodd" fill="#E00012" d="M18.742,108.998c-2.371,0.489-2.908,1.805-2.82,4.271
		c0.268,7.436,0.103,14.889,0.106,22.334c0.299,0.156,0.397,0.311,0.296,0.465c-0.1,0.152-0.2,0.229-0.302,0.229
		c-2.579,0.666-4.563-0.358-6.258-2.202c-1.121-2.275-1.376-4.696-1.351-7.205c0.063-6.102-0.115-12.209,0.102-18.308
		c0.066-1.859-0.425-4.284,2.416-4.899l-0.21,0.146l0.223-0.126c0.219,2.011,2.195,1.957,3.357,2.859
		C15.782,107.373,17.262,108.186,18.742,108.998z"/>
	<path fill-rule="evenodd" clip-rule="evenodd" fill="#DD0013" d="M28.332,4.744c0,0.229,0,0.458,0,0.687
		c-0.587,0.006-1.173,0.011-1.76,0.017c-0.73-0.003-1.474,0.086-2.186-0.025c-3.784-0.592-5.008,0.813-4.946,4.766
		c0.227,14.292,0.06,28.592,0.042,42.888c-2.199-0.074-4.422,0.009-6.499-0.934c3.045,0.21,3.064-1.772,3.058-4.002
		c-0.044-14.465-0.022-28.93-0.023-43.395C20.122,4.745,24.227,4.745,28.332,4.744z"/>
	<path fill-rule="evenodd" clip-rule="evenodd" fill="#BF0317" d="M85.335,94.64c-3.174-3.927-6.349-7.853-9.523-11.779
		c-1.17-4.136-0.271-8.295-0.07-12.436c0.064-1.309,0.782-2.512,2.459-2.498c2.822,1.983,5.645,3.968,8.466,5.951
		c0.521,5.616,0.166,11.242,0.138,16.862C86.798,92.172,86.654,93.654,85.335,94.64z"/>
	<path fill-rule="evenodd" clip-rule="evenodd" fill="#E30113" d="M10.931,103.682c-1.505,1.228-1.042,2.943-1.054,4.501
		c-0.065,8.637-0.08,17.274-0.112,25.911c-2.969-1.788-4.838-4.646-4.939-7.85c-0.306-9.703-0.111-19.423,0.731-29.541
		C7.348,99.03,9.14,101.356,10.931,103.682z"/>
	<path fill-rule="evenodd" clip-rule="evenodd" fill="#BB0317" d="M85.335,94.64c0.054-5.475,0.078-10.949,0.18-16.422
		c0.027-1.514-0.522-3.239,1.151-4.34c2.563,1.51,5.126,3.018,7.688,4.526c-1.727,0.712-2.364,1.602-2.49,3.847
		c-0.425,7.593,0.074,15.178-0.281,22.756C89.501,101.551,87.417,98.095,85.335,94.64z"/>
	<path fill-rule="evenodd" clip-rule="evenodd" fill="#B00218" d="M115.4,5.448c1.836,4.782,0.525,9.752,0.846,14.625
		c0.18,2.742,0.025,5.507,0.022,8.261c-3.142-1.484-5.692-3.692-7.847-6.388c-2.316-4.523-1.427-9.337-1.202-14.071
		c0.084-1.768,0.987-3.045,3.058-2.856C111.984,5.176,113.751,4.594,115.4,5.448z"/>
	<path fill-rule="evenodd" clip-rule="evenodd" fill="#C60216" d="M64.397,55.567c3.906,1.537,6.059,5.038,8.81,7.867
		c-0.835,3.28-0.395,6.637-0.62,9.952c-0.107,1.584,0.42,3.629-2.008,4.155c-2.672-1.987-5.345-3.975-8.017-5.962
		c-2.102-4.309-1.341-8.847-0.961-13.322C61.725,56.795,62.45,55.405,64.397,55.567z"/>
	<path fill-rule="evenodd" clip-rule="evenodd" fill="#C00417" d="M78.123,41.634c0.752-0.36,1.503-0.721,2.254-1.082
		c0.816-0.982,2.074-0.889,3.131-1.289c2.666-1.011,4.672-2.667,3.898-5.79c-0.691-2.791-2.854-3.788-5.676-3.375
		c-0.811,0.119-1.686,0.555-2.395-0.281c0.346-6.095-0.818-12.264,0.908-18.29c2.718,5.883,5.319,11.808,9.086,17.159
		c4.479,6.364,3.379,10.583-3.505,14.687c-1.656,0.445-3.311,0.513-4.962-0.025C79.541,43.429,78.791,42.597,78.123,41.634z"/>
	<path fill-rule="evenodd" clip-rule="evenodd" fill="#B40418" d="M115.4,5.448c-0.438-0.002-0.873-0.008-1.311-0.008
		c-5.721,0-5.729,0-5.724,5.593c0.004,3.637,0.036,7.275,0.056,10.914c-6.225-4.031-8.736-10.402-11.209-17.204
		c8.7,0,16.96,0,25.22,0c0.286,0.153,0.38,0.306,0.286,0.459c-0.094,0.153-0.188,0.23-0.284,0.23
		C120.089,5.438,117.745,5.443,115.4,5.448z"/>
	<path fill-rule="evenodd" clip-rule="evenodd" fill="#CB0216" d="M51.841,64.471c1.658-1.139,1.078-2.878,1.092-4.396
		c0.065-7.11,0.051-14.222,0.065-21.333c2.298,3.564,4.596,7.129,6.894,10.695c-0.596,4.597-0.228,9.218-0.374,13.827
		c-0.059,1.84,0.251,3.801-1.282,5.297C56.104,67.198,53.973,65.835,51.841,64.471z"/>
	<path fill-rule="evenodd" clip-rule="evenodd" fill="#D40316" d="M16.022,136.296c-0.003-0.231-0.001-0.463,0.005-0.693
		c2.929-0.004,5.858-0.007,8.787-0.011c3.202-0.088,7.081,0.912,9.43-0.548c2.764-1.72,0.864-5.923,1.036-9.022
		c0.108-1.946,1.2-3.217,1.96-4.748c4.203,4.161,6.754,9.246,8.792,15.022C35.724,136.296,25.873,136.296,16.022,136.296z"/>
	<path fill-rule="evenodd" clip-rule="evenodd" fill="#A90419" d="M122.434,5.432c0-0.23,0-0.459-0.001-0.689
		c2.113-0.142,4.283-0.687,6.17,0.84c0.751,1.21,1.787,2.209,1.773,3.861c-0.07,7.998-0.018,15.997-0.078,23.996
		c-0.005,0.636-0.543,1.27-0.832,1.904c-1.496-0.868-2.992-1.736-4.486-2.604c2.418-0.369,1.822-2.273,1.832-3.765
		c0.045-6.413-0.187-12.836,0.101-19.238C127.074,6.159,125.775,4.948,122.434,5.432z"/>
	<path fill-rule="evenodd" clip-rule="evenodd" fill="#C80216" d="M58.236,68.561c-0.001-5.23-0.028-10.458,0.015-15.688
		c0.011-1.351-0.525-3.069,1.641-3.436c1.679,1.913,3.61,3.641,4.506,6.129c-1.794,0.8-1.778,2.38-1.776,3.998
		c0.004,4.005-0.037,8.01-0.059,12.015C61.12,70.573,59.678,69.568,58.236,68.561z"/>
	<path fill-rule="evenodd" clip-rule="evenodd" fill="#C20317" d="M70.58,77.541c1.762-3.364,0.534-6.973,0.791-10.458
		c0.116-1.583,0.018-3.029,1.837-3.649c1.905,1.23,3.659,2.627,4.993,4.493c-1.854,1.118-1.473,2.958-1.497,4.661
		c-0.048,3.445,0.337,6.929-0.892,10.272C74.068,81.087,72.324,79.315,70.58,77.541z"/>
	<path fill-rule="evenodd" clip-rule="evenodd" fill="#C90619" d="M52.193,102.193c1.579,2.948,0.475,6.084,0.638,9.132
		c-0.831-0.384-0.887-1.11-0.834-1.884c-0.574-1.944-0.494-3.892-0.029-5.841C52.043,103.131,52.118,102.661,52.193,102.193z"/>
	<path fill-rule="evenodd" clip-rule="evenodd" fill="#E30113" d="M14.301,106.562c-1.968,0.045-3.629-0.271-3.357-2.859
		C12.063,104.656,13.182,105.609,14.301,106.562z"/>
	<path fill-rule="evenodd" clip-rule="evenodd" fill="#CD091C" d="M51.968,103.6c0.01,1.946,0.019,3.894,0.029,5.84
		C50.985,107.499,50.846,105.553,51.968,103.6z"/>
	<path fill-rule="evenodd" clip-rule="evenodd" fill="#CD091C" d="M62.171,97.659c-1.626,0.034-3.251,0.068-4.877,0.102
		C58.899,96.753,60.526,96.737,62.171,97.659z"/>
	<path fill-rule="evenodd" clip-rule="evenodd" fill="#C30D20" d="M80.863,43.348c1.653,0.008,3.307,0.016,4.961,0.025
		C84.166,44.396,82.511,44.468,80.863,43.348z"/>
	<path fill-rule="evenodd" clip-rule="evenodd" fill="#FDFAFA" d="M62.615,101.192c1.055,1.358,3.057,1.678,3.748,3.447
		c0.98,2.512,0.46,4.414-1.933,5.912c-2.525,1.581-4.968,3.105-7.838,0.934c-0.787-0.596-1.331-1.512-1.987-2.28
		c-0.521-1.443-0.398-2.9-0.088-4.36c0.45-1.614,1.586-2.696,2.851-3.68C59.119,100.724,60.868,100.683,62.615,101.192z"/>
	<path fill-rule="evenodd" clip-rule="evenodd" fill="#CD091C" d="M62.615,101.192c-1.75-0.009-3.499-0.019-5.248-0.027
		C59.123,100.008,60.872,99.95,62.615,101.192z"/>
	<path fill-rule="evenodd" clip-rule="evenodd" fill="#CD091C" d="M54.517,104.844c0.029,1.453,0.059,2.906,0.088,4.36
		C53.433,107.774,53.453,106.319,54.517,104.844z"/>
	<path fill-rule="evenodd" clip-rule="evenodd" fill="#FDFCFC" d="M79.335,29.817c2.637-1.282,5.338-1.66,7.6,0.513
		c1.562,1.502,2.592,3.384,1.624,5.839c-1.519,3.854-4.748,4.247-8.183,4.383C75.698,35.177,75.642,34.6,79.335,29.817z"/>
</g>
</svg>
