<?xml version="1.0" encoding="utf-8"?>
<!-- Generator: Adobe Illustrator 16.0.0, SVG Export Plug-In . SVG Version: 6.00 Build 0)  -->
<!DOCTYPE svg PUBLIC "-//W3C//DTD SVG 1.1//EN" "http://www.w3.org/Graphics/SVG/1.1/DTD/svg11.dtd">
<svg version="1.1" id="图层_1" xmlns="http://www.w3.org/2000/svg" xmlns:xlink="http://www.w3.org/1999/xlink" x="0px" y="0px"
	 width="605.945px" height="140.602px" viewBox="0 0 605.945 140.602" enable-background="new 0 0 605.945 140.602"
	 xml:space="preserve">
<g>
	<g>
		<path id="_x35_" fill="#FEFEFE" d="M319.688,106.057c-1.396,2.365-2.363,3.979-2.9,4.836c-0.538,0.86-0.968,1.506-1.185,2.043
			c-0.215,0.432-0.43,0.859-0.752,1.289c-0.431,0.752-0.858,1.612-1.183,2.475c-0.322,0.857-0.43,1.396-0.215,1.609
			c0.322,0.215,0.645,0,1.075-0.43c0.43-0.537,0.857-0.752,1.289-0.859c0.43,0,0.753-0.215,0.858-0.537
			c0.107-0.32,0.322-0.538,0.537-0.538c0.215-0.105,0.646-0.535,1.182-1.29c0.108-0.105,0.108-0.215,0.218-0.32
			c-0.433,2.043-0.646,4.084-0.753,6.232c-0.107,2.041-0.107,3.654-0.217,4.729c-0.106,1.075,0,2.147,0.107,3.332
			c0.107,1.182,0.322,1.826,0.537,2.041c0.431,0.538,0.753,0.431,0.968,0c0.107-0.215,0.43-0.537,1.182-0.859
			c0.218-0.105,0.218-0.537,0.108-1.182c-0.216-1.613-0.323-3.117-0.323-4.406c0.107-3.547,0.215-5.912,0.323-7.094
			c0.107-1.185,0.215-2.043,0.43-2.58c0.432-0.967,0.217-1.719-0.538-2.256c-0.105-0.108-0.215-0.108-0.32-0.108
			c0.215-0.322,0.431-0.645,0.753-1.075c0.322-0.43,0.537-0.857,0.857-1.182c0.217-0.322,0.537-0.752,0.97-1.396
			c0.32-0.646,0.43-1.075,0.32-1.398c-0.215-0.537-0.536-1.074-0.968-1.504c-0.43-0.43-0.857-0.646-1.289-0.646
			c-0.431,0-0.858,0.432-1.505,1.504L319.688,106.057z M329.359,111.646c-0.322,0.107-0.752,0.215-1.507,0.537
			c-0.752,0.323-1.61,0.538-2.577,0.86c-0.752,0.215-1.185,0.537-1.075,0.967c0.323,1.182,0.646,1.827,1.183,2.15
			c0.322,0.105,0.537,0.32,0.752,0.537c0.216,0.215,0.646,0.215,1.185,0.215c-0.322,0.645-0.752,1.719-1.29,3.225
			c-0.646,1.611-1.184,2.9-1.827,3.869c-0.537,0.967-1.289,2.686-2.042,4.943c-0.107,0.43-0.107,0.752,0,0.752
			c0.105,0.105,0.323,0,0.431-0.322c0.107-0.215,0.322-0.43,0.537-0.646c0.215-0.105,0.322-0.32,0.43-0.535
			c0.108-0.217,0.217-0.433,0.322-0.538c0.107-0.107,0.215-0.322,0.43-0.432c0.107-0.216,0.323-0.431,0.646-0.646
			c0.537-0.322,1.396-1.611,2.579-3.979c1.29-2.361,2.147-3.977,2.579-5.051l0.858-1.935l2.688-1.075l3.332-1.396
			c0.215-0.105,0.322-0.215,0.322-0.43s0-0.43,0.105-0.538c0.107-0.215,0.107-0.322,0.107-0.43c0-0.108,0-0.322,0-0.433
			c0-0.215-0.107-0.32-0.217-0.43c-0.106-0.106-0.215-0.215-0.32-0.322c-0.107-0.105-0.215-0.215-0.322-0.215
			c-0.106,0-0.215-0.105-0.43-0.215c-0.108-0.106-0.538-0.106-1.075,0.107l-2.042,0.536c0.322-0.968,0.752-1.825,1.183-2.578
			c0.322-0.646,0.107-1.29-0.431-1.937c-0.215-0.215-0.43-0.43-0.646-0.43s-0.321-0.107-0.431-0.215
			c-0.106-0.108-0.322-0.107-0.646-0.107c-0.322,0.107-0.537,0.215-0.752,0.537c-0.217,0.322-0.322,0.537-0.217,0.752
			c0.107,0.215,0.107,0.43-0.105,0.646l-1.72,4.299L329.359,111.646L329.359,111.646z M331.294,116.052
			c-0.215,0.108-0.322,0.538-0.322,1.075s-0.215,1.396-0.753,2.579c-0.43,1.183-0.752,2.687-0.752,4.515
			c-0.105,1.826,0.107,3.116,0.537,3.979c0.431,0.857,0.753,1.504,1.184,1.824c0.858,0.752,2.363,1.185,4.515,1.29
			c3.332,0.107,5.479-0.105,6.449-0.753c0.645-0.43,1.072-0.857,1.504-1.396c0.43-0.646,0.538-1.29,0.215-1.827
			c-0.107-0.538-0.43-0.86-0.967-1.185c-0.432-0.32-0.646-0.645-0.86-1.072c-0.107-0.432-0.215-0.967-0.322-1.397
			c-0.105-0.43-0.215-0.753-0.43-0.858c-0.215,0-0.43,0.321-0.43,0.968c0,0.646,0,1.61,0,2.794c0,0.215-0.432,0.43-1.075,0.753
			c-0.752,0.322-1.72,0.43-3.009,0.43c-2.474,0-3.869-0.43-4.301-1.075c-0.321-0.535-0.431-1.288-0.431-2.146
			c0-0.86,0.215-1.938,0.431-3.226c0.322-1.289,0.646-2.149,1.074-2.579c0.322-0.432,0.432-0.859,0.537-1.396
			c0.107-0.967-0.43-1.505-1.719-1.612c-0.431,0-0.753,0.107-1.075,0.217V116.052z M339.14,108.422
			c0.322,0.322,0.752,0.537,1.075,0.645c0.43,0.107,0.752,0.107,1.074-0.32c0.645-0.646,0.537-1.613-0.43-2.688
			c-0.322-0.322-0.86-0.537-1.612-0.645c-0.537-0.107-0.967-0.107-1.183,0.215c-0.217,0.322-0.217,0.752,0.106,1.182
			c0.322,0.646,0.646,1.075,0.967,1.506L339.14,108.422L339.14,108.422z"/>
		<path id="_x36_" fill="#FEFEFE" d="M362.999,120.352c0.107,1.396,0,2.901-0.215,4.621c-0.107,1.074-0.432,1.936-0.967,2.688
			c-0.646,0.968-1.29,1.825-2.26,2.579c-0.645,0.535-1.289,1.183-2.042,1.826c-0.43,0.432-0.645,0.752-0.645,0.859
			c0.105,0.107,0.322,0.107,0.752-0.107c0.323-0.215,0.86-0.43,1.612-0.645c0.753-0.323,1.29-0.538,1.827-0.753
			c0.43-0.215,0.858-0.538,1.396-0.86c0.537-0.32,1.182-0.967,1.827-1.934c0.43-0.753,0.858-1.721,1.074-2.902
			c0.105-0.857,0.215-1.719,0.215-2.688c0.105-1.074,0.105-1.721,0.105-2.041c0-0.215,0-0.432,0.108-0.646
			c0.106-0.323,0-0.646-0.216-1.075c-0.215-0.321-0.646-0.646-1.396-0.858c-0.538-0.215-0.968-0.215-1.183,0
			c-0.322,0.43-0.322,1.075-0.107,1.936H362.999z M367.405,103.478c-0.537,0.322-1.937,0.646-4.406,1.185
			c-2.364,0.537-3.977,0.752-4.729,0.645c-0.753-0.105-1.183,0-1.396,0.215c-0.107,0.107-0.322,0.537-0.537,1.184l-0.753,2.58
			c-0.215,0.857-0.859,3.01-1.935,6.446c-1.074,3.438-1.827,6.343-2.364,8.601c-0.537,2.256-0.967,3.869-1.184,4.729
			c-0.431,1.611-0.431,2.474-0.105,2.579c0.105,0,0.322-0.215,0.537-0.753c0.215-0.537,0.43-0.967,0.645-1.182
			c0.537-0.432,0.968-1.184,1.29-2.259c0.322-1.073,0.646-2.147,1.074-3.114c0.431-1.075,0.753-2.259,1.075-3.439
			c0.321-1.29,0.645-2.365,0.967-3.225l1.505-4.621c0.646-2.15,1.185-3.654,1.505-4.515c0.537,0,2.364-0.322,5.374-0.969
			c-0.323,0.107-0.431,0.537-0.431,0.969c0,0.536-0.107,1.073-0.322,1.825c-1.289,0.215-2.687,0.432-4.299,0.859
			c-0.967,0.216-1.29,0.646-1.183,1.184c0.106,0.646,0.321,1.184,0.536,1.396c0.646,0.537,1.184,0.752,1.612,0.537
			c0.215-0.107,0.537-0.215,0.967-0.322l1.397-0.215l-0.538,2.473c-0.215,0-0.322,0-0.537,0.107
			c-0.215-0.433-0.43-0.646-0.752-0.646s-0.646,0.107-0.86,0.433c-0.535,0.752-0.752,1.934-0.967,3.546
			c-0.105,2.899-0.105,4.729-0.105,5.589c0.105,0.752,0.215,1.504,0.43,2.147c0.215,0.646,0.537,0.97,0.859,0.97
			c0.968,0,1.505-0.646,1.505-1.938c-0.322-2.794-0.215-5.479,0.215-8.061c2.365-0.432,3.869-0.752,4.515-0.967
			c0.646-0.217,0.967-0.322,1.184-0.217c0.105,0.107,0.215,0.322,0.215,0.646c0.105,2.795,0.105,4.621,0.105,5.479
			c-0.105,0.86-0.215,1.29-0.537,1.397c-0.32,0.105-0.43,0.322-0.32,0.645c0.105,0.432,0.215,0.752,0.43,1.184
			c-0.322,0.105-0.537,0.215-0.967,0.32c-0.432,0.218-0.432,0.646,0,1.291c0.215,0.217,0.537,0.537,0.857,0.859
			c0.432,0.322,1.075,1.289,2.042,2.688c0.97,1.29,1.612,1.825,1.827,1.61c0.322-0.32,0.646-0.752,0.752-1.182
			c0.433-1.186,0.538-2.043,0.323-2.58c-0.105-0.322-0.323-0.646-0.753-0.967c-0.537-0.537-0.967-0.86-1.289-1.075
			c-0.105-0.107-0.215-0.107-0.323-0.215c0.646-0.646,1.075-1.72,1.185-3.331c0.105-0.646,0.105-1.398,0.105-2.258
			c0-0.86,0-1.611-0.105-2.149c0-0.646,0-1.075,0.105-1.505c0.107-0.43,0-0.859-0.215-1.182c-0.43-0.752-1.075-1.29-1.72-1.612
			c-0.322-0.216-0.646-0.108-1.074,0.215c-0.323,0.322-0.753,0.43-1.29,0.43s-1.827,0.107-3.762,0.433
			c0.43-0.646,0.857-1.186,1.075-1.613l0.645-1.074c1.827-0.43,3.762-0.645,5.696-0.645c0.322,0,0.645,0,0.857,0.105
			c0.537,0.215,1.075,0.107,1.612-0.43c0.107-0.107,0.215-0.322,0.322-0.43l0.215-0.646c0-0.215-0.215-0.646-0.859-1.29
			c-0.215-0.32-1.073-0.32-2.472-0.32c-1.396,0.105-2.473,0.215-3.225,0.32c0-0.105,0-0.215,0-0.32c0-0.107,0-0.322,0.105-0.432
			c0.107-0.43-0.215-0.857-1.183-1.396c-0.322-0.217-0.646-0.322-0.967-0.322l2.042-0.538c0.645-0.322,1.29-0.43,1.72-0.537
			c0.537,0,0.967-0.322,1.29-0.752c0.322-0.43,0.215-0.967-0.432-1.719c-0.431-0.433-0.858-0.753-1.073-0.86
			c-0.322,0-0.646,0.107-0.86,0.322L367.405,103.478z"/>
		<path id="_x37_" fill="#FEFEFE" d="M393.092,110.141l5.052-0.857c0.322-0.107,0.646-0.107,1.074-0.217
			c0.216-0.105,0.433-0.32,0.646-0.752c0.214-0.431,0.32-0.969,0.105-1.506s-0.645-0.857-1.183-1.074
			c-0.215,0-0.43-0.105-0.752-0.32c-0.43-0.107-0.752-0.107-0.86,0c-0.215,0.215-0.645,0.32-1.182,0.43c0-0.107,0-0.107,0-0.215
			c0-0.43-0.215-0.967-0.537-1.72c-0.323-0.753-0.753-1.075-1.29-1.29c-0.537-0.107-0.859,0-1.075,0.43l-1.935,3.547
			c-0.215,0-0.537,0-1.184,0.107c-0.537,0.105-1.183,0.105-1.826,0.215c-0.646,0-0.969,0.105-1.184,0.322
			c-0.322,0.536-0.215,1.074,0.215,1.826l0.538,0.752c0.215,0.217,0.431,0.432,0.646,0.537c0.215,0.107,0.43,0.215,0.537,0.322
			c-0.859,1.505-1.612,3.01-2.364,4.514c-0.537,1.076-1.185,1.828-2.042,2.475c-0.432,0.215-0.752,0.537-0.752,0.967
			s0.215,0.86,0.645,1.396c0.431,0.538,0.859,0.86,1.185,0.86c0.32,0,0.967,0,1.719-0.215c1.612-0.215,2.902-0.43,3.762-0.537
			c0.86-0.108,1.505-0.216,2.042-0.323v3.011c-0.43,0-0.967,0.105-1.504,0.215c-3.762,0.538-6.234,0.858-7.201,1.184
			c-1.075,0.215-1.827,0.43-2.472,0.646c-0.646,0.215-0.968,0.43-1.075,0.752c-0.105,0.32,0,0.857,0.43,1.505
			c0.433,0.752,0.753,1.183,1.185,1.29c0.215,0.105,0.857,0,1.827-0.215c2.042-0.646,4.514-1.186,7.416-1.723
			c0.43-0.105,0.857-0.105,1.396-0.215c0,5.052,0.216,7.631,0.646,7.738c0.215,0,0.43-0.215,0.535-0.752
			c0.107-0.432,0.432-0.859,0.859-1.184c0.431-0.321,0.753-0.753,0.968-1.291c0.217-0.535,0.322-1.289,0.322-2.361
			c0-1.075,0-1.938,0.107-2.58c1.396-0.215,3.115-0.322,5.052-0.432c1.935-0.106,3.224,0,3.762,0.217
			c0.537,0.32,0.967,0.32,1.289,0.32c0.322-0.105,0.646-0.215,1.075-0.43c0.105-0.107,0.322-0.43,0.322-1.074
			c0.105-1.183-0.322-1.936-1.397-2.148c-0.645-0.107-1.182-0.322-1.396-0.537c-0.323-0.215-0.538-0.322-0.646-0.215
			c-0.108,0.105-0.43,0.215-0.859,0.32c-0.429,0.107-1.396,0.216-2.9,0.322c-1.504,0.107-2.901,0.215-4.191,0.43v-2.041
			c0-0.43,0-0.753,0-1.073c0.646-0.107,1.397-0.217,2.474-0.323c1.073-0.107,2.148-0.215,3.225-0.43
			c0.537-0.107,0.86-0.217,0.86-0.646s-0.108-0.967-0.323-1.504c-0.215-0.538-0.43-0.86-0.646-0.968
			c-0.215-0.108-0.645-0.107-1.29,0c-0.645,0.105-1.72,0.32-3.224,0.538c-0.43,0-0.753,0.105-1.075,0.215
			c0-0.433,0.107-0.753,0.215-1.186c0.107-0.752,0.107-1.289-0.105-1.609c-0.967-1.289-1.827-1.827-2.579-1.505
			c-0.752,0.321-0.968,1.29-0.859,2.794c0,0.538,0,1.291,0.107,2.148c-0.753,0.107-1.397,0.215-2.15,0.432
			c-0.967,0.105-1.504,0.105-1.719-0.217c-0.107-0.215,0-0.645,0.43-1.396l3.439-5.374L393.092,110.141z"/>
		<path id="_x38_" fill="#FEFEFE" d="M423.293,127.66c-0.107-6.558-0.107-11.284,0.107-14.294c0.214-3.012,0.32-4.836,0.535-5.481
			c0.217-0.645,0.217-1.075,0.107-1.397c-0.322-0.752-0.967-1.396-1.935-1.824c-0.322-0.107-0.537-0.107-0.752,0.105
			c-0.537,0.537-0.97,0.859-1.397,0.859c-0.43,0.105-0.752,0.105-1.075,0.105h-0.752c-0.215-0.215-0.43-0.43-0.752-0.535
			c-0.322-0.107-0.753,0.105-1.183,0.752c-0.322,0.43-0.432,1.182-0.322,2.147s0,2.042-0.107,3.226
			c-0.215,1.184-0.32,2.258-0.43,3.115c-0.105,0.97-0.215,1.828-0.538,2.795c-0.215,0.859-0.537,2.474-0.967,4.729
			c-0.43,2.258-0.752,4.084-1.183,5.374c-0.754,2.579-0.969,3.977-0.537,4.084c0.32,0.105,0.537-0.215,0.858-0.968
			c0.215-0.752,0.537-1.396,0.859-2.041l0.859-1.938c0.431-0.857,0.858-2.256,1.396-4.189c0.322,0,1.075-0.107,2.149-0.537
			c1.073-0.432,1.825-0.646,2.042-0.752c0,2.472,0,4.299,0,5.373c0,1.073,0,1.721-0.107,1.828c-0.322,0.535-0.859,0.645-1.827,0.43
			c-0.322-0.107-0.43,0-0.537,0.105c-0.105,0.107,0,0.432,0.322,0.752c0.322,0.322,0.43,0.646,0.537,0.859
			c0,0.215,0.215,0.537,0.538,0.968c0.322,0.432,0.645,0.646,0.752,0.753c0.215,0,0.43-0.105,0.752-0.431
			c0.323-0.322,0.86-0.753,1.72-1.183c0.322-0.216,0.646-0.537,0.753-0.859c0.215-0.43,0.215-0.967,0.215-1.827L423.293,127.66z
			 M420.176,118.309c-2.364,0.646-3.547,1.075-3.547,1.075c0.107-0.753,0.323-1.397,0.323-1.935c0.105-1.074,0.215-1.937,0.322-2.58
			h0.215c1.396-0.322,2.362-0.646,2.899-0.859c-0.105,1.505-0.215,3.01-0.215,4.406L420.176,118.309L420.176,118.309z
			 M420.498,111.323c-0.322,0.106-0.646,0.216-1.182,0.321l-1.507,0.432c0-1.075,0.107-2.042,0.432-2.901
			c0.105-0.43,0.215-0.752,0.215-1.183c0.753-0.217,1.183-0.432,1.505-0.537c0.322-0.108,0.537-0.108,0.537-0.108
			c0.105,0.108,0.105,0.538,0.105,1.398c-0.105,0.857-0.105,1.719-0.105,2.687V111.323L420.498,111.323z M429.204,105.52
			c-0.322-0.32-0.646-0.43-1.075-0.43s-0.752,0.107-0.967,0.43c-0.215,0.323-0.322,0.646-0.431,1.289
			c-0.859,4.191-1.289,8.383-1.396,12.685c0,1.505-0.107,3.009-0.215,4.515c-0.107,1.611,0,3.438,0.215,5.479
			c0.107,0.754,0.322,1.289,0.537,1.612c0.215,0.215,0.43,0.322,0.645,0.322c0.217,0,0.323-0.107,0.433-0.431
			c0.105-0.322,0.537-0.537,1.182-0.969c0.107-0.105,0.215-0.43,0.215-0.967c0.969-0.215,1.722-0.322,2.042-0.215
			c0.322,0,0.86-0.107,1.397-0.322c0.645-0.215,1.075-0.43,1.505-0.646c0.537,0.538,1.289,1.075,2.472,1.827
			c1.185,0.645,1.937,1.072,2.474,1.289c0.536,0.216,0.753,0.216,0.968,0.106l0.321-0.431c0.106-0.215,0.216-0.322,0.321-0.432
			c0.107-0.106,0.107-0.215,0.215-0.215c0.322,0,0.538,0,0.86,0.215c0.967,0.646,1.504,0.432,1.72-0.43
			c0-0.105-0.216-0.322-0.753-0.537s-0.857-0.43-0.967-0.537c-0.108-0.105-0.322-0.32-0.646-0.537
			c-0.646-0.536-1.183-0.858-1.826-1.184l-1.937-1.182l-0.967-0.646c0.537-1.505,0.859-2.901,1.075-3.869
			c0.215-1.073,0.321-1.826,0.537-2.58c0.215-0.645,0.32-1.182,0.43-1.719c0.107-0.43,0-0.752-0.322-0.968
			c-0.32-0.215-0.753-0.537-1.396-0.86c-0.646-0.321-1.29-0.215-2.149,0.323c-0.43,0.43-0.967,0.646-1.396,0.86
			c-0.432,0.105-1.074,0.43-1.937,0.752c-0.43,0.105-0.752,0.32-0.857,0.537c-0.107,0.215,0.105,0.536,0.43,1.072
			c0.322,0.538,0.645,0.646,0.968,0.646c0.537-0.107,1.396-0.646,2.688-1.612c0.215-0.215,0.43-0.215,0.536-0.215
			c0.106,0.107,0.106,0.322,0,0.752c-0.321,1.828-0.752,3.332-1.073,4.621c-0.107-0.107-0.215-0.322-0.432-0.43
			c-1.183-1.396-2.043-2.363-2.795-2.688c-0.645-0.321-1.182-0.646-1.396-0.859c-0.215-0.216-0.431-0.431-0.646-0.431
			c0.216-5.588,0.646-9.026,1.185-10.315c0.215,0,0.537,0,0.967-0.107c0.752-0.322,1.935-0.86,3.547-1.72
			c0.322-0.107,0.537-0.216,0.646-0.107c0,0.107,0,0.752-0.106,1.721s-0.322,1.936-0.752,2.9c-0.107,0.322-0.322,0.538-0.43,0.646
			l-0.433,0.106c-0.43,0-0.967-0.106-1.396-0.215c-0.433-0.108-0.646-0.108-0.753,0c-0.107,0.106,0,0.215,0.105,0.43
			c0.322,0.322,0.433,0.538,0.433,0.646c-0.108,0.105,0,0.43,0.215,1.073c0.215,0.645,0.43,0.968,0.645,1.073
			c0.215,0.107,0.431,0.107,0.859-0.105c0.431-0.107,0.753-0.215,0.968-0.215s0.646-0.107,0.967-0.432
			c0.86-0.536,1.505-1.72,2.15-3.438c0.215-0.752,0.322-1.504,0.43-2.257l0.107-1.612c0.105-0.646-0.431-1.396-1.505-2.256
			c-0.322-0.217-0.537-0.217-0.752,0c-0.217,0.215-0.538,0.321-0.97,0.321c-0.32,0-0.752,0-1.289,0.106
			c-0.431,0.107-1.073,0.322-1.825,0.322c-0.754,0.105-1.397,0.215-2.149,0.321L429.204,105.52z M428.236,121.319
			c0.32,0.322,0.646,0.537,0.968,0.859s0.645,0.968,1.182,1.938c0.538,0.967,0.968,1.719,1.505,2.146
			c-0.752,0.646-1.935,1.29-3.547,2.043c-0.215-2.258-0.215-4.299-0.105-6.234C428.236,121.856,428.236,121.534,428.236,121.319z"/>
		<path fill="#FEFEFE" d="M202.982,12.05v38.047h4.944v-3.654h-19.453v-9.994c0-1.396,0.967-2.473,2.257-2.473h8.383
			c4.944,0,7.416-1.828,8.383-6.02h-8.92c-1.183,2.258-2.902,2.363-6.234,2.363h-8.706c-2.042,0-3.761,1.936-3.761,4.191v37.187
			c0,5.268,0,10.963-1.72,16.229h8.706c1.612-5.051,1.719-10.961,1.719-16.229V49.882h5.696v38.044h8.706V12.05L202.982,12.05z
			 M157.666,86.315h7.523c2.257,0,4.084-1.934,4.084-4.189V62.241h9.78v-3.654h-9.78v-6.556h10.103v-3.654h-3.654l1.397-9.673h-8.92
			l-1.505,9.673h-4.299l-1.29-9.673h-9.028l1.397,9.673h-3.654v3.654h9.995v6.556h-9.672v3.654h9.672v18.271
			c0,1.396-0.859,2.256-2.042,2.256h-0.215v3.654L157.666,86.315z M178.946,35.909v-3.654h-9.565v-6.233h-9.458v6.233h-9.565v3.654
			H178.946z M178.839,84.704c-0.86-6.879-1.505-13.223-1.72-19.239h-6.664c0.215,6.341,0.645,13.004,1.505,19.239H178.839z
			 M156.806,84.704c0.86-6.234,1.29-12.897,1.505-19.239h-6.664c-0.215,6.018-0.86,12.467-1.612,19.239h6.878H156.806z"/>
		<path id="_x31_" fill="#FEFEFE" d="M226.128,86.208V77.18h11.607v3.116c0,1.29-1.075,2.364-2.365,2.364h-2.257v3.547h9.995
			c2.257,0,4.191-1.826,4.191-4.084V56.007c0-2.365-1.935-4.192-4.191-4.192h-22.355c-2.364,0-4.191,1.827-4.191,4.192v30.308h9.565
			L226.128,86.208L226.128,86.208z M216.24,46.12c-0.215,0.645-0.107,1.504,0.322,2.147c0.429,0.646,1.182,0.967,1.935,0.967h26.869
			c0.752,0,1.505-0.32,1.935-0.967c0.538-0.645,0.538-1.505,0.43-2.147l-3.439-11.607h-9.565l2.794,9.458
			c0.107,0.43,0.107,0.86-0.107,1.075c-0.215,0.322-0.537,0.537-0.967,0.537h-8.383c-0.43,0-0.645-0.107-0.967-0.537
			c-0.215-0.215-0.323-0.646-0.215-1.075l5.803-17.518h-9.888l-6.448,19.56L216.24,46.12z M275.889,82.124h-13.972
			c-1.29,0-2.364-1.184-2.364-2.364V57.512h-9.565v23.967c0,2.364,1.827,4.191,4.191,4.191h21.71v-3.654V82.124L275.889,82.124z
			 M275.889,51.063h-13.972c-1.29,0-2.364-1.075-2.364-2.363V26.558h-9.565v23.967c0,2.365,1.827,4.191,4.191,4.191h21.71V51.063
			L275.889,51.063z M269.118,42.895c3.009-4.299,5.052-8.706,6.771-13.327h-8.383c-1.935,4.729-3.977,8.49-7.309,13.327H269.118z
			 M269.118,73.848c3.009-4.299,5.052-8.706,6.771-13.22h-8.383c-1.935,4.729-3.977,8.383-7.309,13.22H269.118z M226.235,57.834
			c0-1.29,1.075-2.364,2.364-2.364h6.771c1.29,0,2.365,1.075,2.365,2.364v5.159h-11.607v-5.159H226.235z M226.235,66.647h11.607
			v6.986h-11.607V66.647z"/>
		<path id="_x32_" fill="#FEFEFE" d="M319.309,86.208h7.633c2.362,0,4.404-1.826,4.404-4.191V64.175h5.589
			c2.474,0,4.406-1.827,4.406-4.084V43.97c0-2.364-1.935-4.191-4.406-4.191H327.8l1.611-6.231h-9.995l-1.612,6.231h-1.935
			c-2.364,0-4.406,1.827-4.406,4.191v16.122c0,2.257,2.042,4.084,4.406,4.084h6.02V81.48c0,0.646-0.646,1.184-1.29,1.184h-1.29
			v3.652V86.208L319.309,86.208z M309.421,34.082c0-1.29,1.075-2.364,2.472-2.364h30.096v-3.654h-38.154
			c-2.364,0-4.406,1.937-4.406,4.191v38.798c0,6.664-0.105,11.178-1.505,15.154h10.211c1.289-3.764,1.289-9.78,1.289-15.047
			L309.421,34.082L309.421,34.082z M291.688,86.315c3.117-6.341,5.267-15.047,6.557-23.967h-9.566
			c-1.182,9.135-3.332,16.014-6.556,23.967h9.672H291.688z M342.094,86.208c-1.075-5.911-1.61-12.037-1.61-18.378h-7.738
			c0.105,6.231,0.43,12.467,1.612,18.378h7.846H342.094z M317.804,86.208c1.505-5.806,2.15-12.037,2.688-18.378h-7.848
			c-0.215,6.341-1.183,12.467-2.577,18.378H317.804z M298.136,57.727l-4.191-14.294h-9.78l4.299,14.294H298.136z M297.276,39.456
			l-4.084-13.327h-9.78l4.191,13.327H297.276z M323.393,60.521c-1.396,0-2.472-1.075-2.472-2.362v-4.516h10.855v4.516
			c0,1.29-1.185,2.362-2.475,2.362H323.393z M331.776,49.988h-10.855v-4.404c0-1.29,1.183-2.364,2.472-2.364h5.911
			c1.29,0,2.475,1.075,2.475,2.364L331.776,49.988L331.776,49.988z"/>
		<path id="_x33_" fill="#FEFEFE" d="M407.761,80.082c-16.979-0.215-24.826-5.696-24.826-15.046v-2.688h-9.778v2.688
			c0,9.35-7.848,14.832-24.827,15.046v5.911c14.724-0.217,24.504-3.117,29.663-8.49c5.159,5.479,14.938,8.383,29.771,8.49
			L407.761,80.082L407.761,80.082z M361.654,75.89V61.918c0-1.29,1.072-2.365,2.362-2.365h27.836c1.29,0,2.364,1.075,2.364,2.365
			V75.89h9.565V60.2c0-2.259-1.827-4.191-4.191-4.191h-43.525c-2.259,0-4.191,1.935-4.191,4.191V75.89h9.565H361.654z
			 M407.868,49.129h-16.98c-1.29,0-2.363-1.075-2.363-2.365v-6.878c6.019-2.042,11.93-4.406,17.731-6.878v-4.191
			c-5.911,2.58-11.715,4.836-17.731,6.878v-9.241h-9.564v12.357c-3.332,0.967-6.557,1.827-9.78,2.58v4.191
			c3.226-0.752,6.558-1.612,9.78-2.58v5.589c0,2.365,1.935,4.191,4.191,4.191h24.824v-3.654L407.868,49.129L407.868,49.129z
			 M364.341,52.891V33.975h-2.257c1.29-2.364,2.364-4.942,3.439-7.521h-9.89c-1.935,5.266-4.729,10.21-7.631,15.152h6.771v11.285
			H364.341z"/>
		<path id="_x34_" fill="#FEFEFE" d="M414.209,38.381h10.641l-8.061,16.121c-0.538,1.182-0.538,2.365,0.215,3.547
			c0.646,1.075,1.72,1.612,3.009,1.612h19.668v11.177h-25.579v3.654h25.579v11.715h9.565V74.493h24.505v-3.654h-24.505V59.661h22.57
			v-3.654h-22.57V44.185h-9.565v11.822h-11.93c-0.43,0-0.752-0.215-0.967-0.538c-0.215-0.43-0.215-0.86-0.107-1.182l7.738-16.016
			h39.336V34.62h-37.509l4.084-8.385h-9.565l-4.189,8.385h-12.47v3.652L414.209,38.381z"/>
		<path id="_x35__1_" fill="#FEFEFE" d="M505.886,85.993h34.069v-3.654h-2.149V32.255c0-2.364-1.935-4.299-4.404-4.299h-21.175
			c-2.362,0-4.299,1.935-4.299,4.299v50.083h-2.042V85.993L505.886,85.993z M480.199,32.578h8.061v9.35h-8.061v3.547h8.061v40.84
			h9.138v-40.84h8.061v-3.547h-8.061v-9.35h1.287c4.729,0,7.311-2.259,8.601-6.449H496.43c-1.072,1.935-2.794,2.794-5.374,2.794
			h-10.854v3.655H480.199z M485.466,86.315c0.859-5.156,0.967-10.21,0.967-15.369V47.731h-5.479v23.107
			c0,5.159-0.107,10.318-0.752,15.477H485.466z M504.596,86.315V47.731h-5.373v38.583L504.596,86.315L504.596,86.315z
			 M528.025,46.872h-10.104v-12.79c0-1.29,1.075-2.364,2.364-2.364h5.374c1.29,0,2.364,1.182,2.364,2.364L528.025,46.872
			L528.025,46.872z M517.923,68.259h10.104v14.187h-10.104V68.259z M517.923,50.526h10.104v14.079h-10.104V50.526z"/>
		<path id="_x36__1_" fill="#FEFEFE" d="M561.558,64.39v-2.364h44.28v-3.652H586.6v-5.159h16.981V49.56H586.6v-5.266h16.981V40.64
			H586.6v-5.16h19.238v-3.652h-19.453l-1.075-5.696h-9.778l1.073,5.696h-14.399c0.857-1.827,1.609-3.764,2.364-5.696H554.25
			c-2.258,5.911-4.944,11.285-8.061,17.089h5.803v20.958h9.458L561.558,64.39z M551.348,81.909c0,2.257,1.937,4.189,4.191,4.189
			h45.247c2.364,0,4.189-1.935,4.189-4.189v-11.5c0-2.364-1.935-4.191-4.189-4.191h-45.247c-2.257,0-4.191,1.827-4.191,4.191V81.909
			z M595.412,80.082c0,1.29-1.074,2.362-2.364,2.362h-29.663c-1.289,0-2.364-1.072-2.364-2.362v-7.953
			c0-1.29,1.075-2.364,2.364-2.364h29.663c1.29,0,2.364,0.967,2.364,2.364V80.082z M561.558,44.4h15.369v5.268h-15.369V44.4z
			 M561.558,53.32h15.369v5.159h-15.369V53.32z M561.558,35.694h15.369v5.159h-15.369V35.694z"/>
		<path fill="#FEFEFE" d="M151.433,109.422h64.27v1.935h-64.27c-0.215,0-0.322-0.105-0.322-0.215v-1.396
			c0-0.107,0.107-0.215,0.322-0.215V109.422L151.433,109.422z M188.189,125.329h27.944v1.935h-27.944
			c-0.107,0-0.322-0.105-0.322-0.215v-1.397c0-0.105,0.107-0.215,0.322-0.215V125.329z M544.685,125.329h23.537
			c0.107,0,0.322,0.105,0.322,0.215v1.396c0,0.107-0.106,0.217-0.322,0.217h-23.537v-1.937V125.329z M167.124,117.375h48.901v1.935
			h-48.901c-0.215,0-0.322-0.105-0.322-0.215v-1.396c0-0.107,0.107-0.217,0.322-0.217V117.375z M544.685,117.375h44.494
			c0.216,0,0.323,0.105,0.323,0.215v1.396c0,0.107-0.107,0.217-0.323,0.217h-44.494v-1.937V117.375z M544.685,109.422h60.188
			c0.215,0,0.323,0.105,0.323,0.215v1.396c0,0.106-0.108,0.216-0.323,0.216h-60.188v-1.937V109.422z"/>
	</g>
	<g>
		<path fill-rule="evenodd" clip-rule="evenodd" fill="#FEFEFE" d="M138.593,121.826c-0.044-17.392-0.036-34.781-0.036-52.173
			c0-18.441-0.014-36.882,0.041-55.323c-0.649-0.796-0.99-1.821-1.037-2.881c-0.219-0.37-0.407-0.756-0.513-1.182
			c-0.448-0.54-0.761-1.181-0.927-1.875c-0.382-0.315-0.707-0.68-0.954-1.098c-0.624-0.35-1.114-0.838-1.47-1.413
			c-0.306-0.167-0.585-0.36-0.827-0.588c-0.014-0.009-0.026-0.02-0.04-0.029c-1.15-0.108-2.049-0.555-2.702-1.206
			c-0.306-0.152-0.584-0.333-0.832-0.542c-0.672-0.057-1.249-0.241-1.75-0.504c-0.189,0.019-0.384,0.029-0.584,0.029
			c-0.634,0-1.198-0.099-1.698-0.273C89.487,2.821,53.712,2.822,17.936,2.767c-0.344,0.116-0.712,0.2-1.107,0.241
			c-0.354,0.21-0.736,0.387-1.163,0.505c-0.473,0.158-0.989,0.258-1.558,0.271c-0.109,0.035-0.233,0.048-0.346,0.077
			c-0.086,0.038-0.185,0.059-0.275,0.091c-0.299,0.203-0.627,0.373-0.984,0.507c-0.327,0.225-0.675,0.426-1.079,0.562
			c-0.267,0.298-0.57,0.566-0.911,0.795c-0.263,0.199-0.56,0.36-0.872,0.503C9.314,6.694,8.925,7.019,8.48,7.28
			C8.437,7.335,8.392,7.388,8.347,7.441C8.09,7.888,7.788,8.309,7.398,8.656C7.34,8.736,7.269,8.806,7.206,8.882
			C7.103,9.037,6.991,9.185,6.871,9.328c-0.214,0.715-0.549,1.395-1.039,1.963c-0.058,0.23-0.134,0.456-0.218,0.678
			c-0.003,0.013-0.01,0.025-0.014,0.039c-0.095,0.798-0.353,1.582-0.772,2.272c0.055,36.875,0.056,73.752,0,110.628
			c0.167,0.461,0.266,0.951,0.299,1.451c0.21,0.333,0.392,0.684,0.513,1.063c0.125,0.188,0.254,0.372,0.35,0.576
			c0.367,0.388,0.656,0.84,0.866,1.334c0.373,0.36,0.666,0.786,0.886,1.252c0.478,0.33,0.885,0.725,1.17,1.211
			c0.375,0.229,0.68,0.525,0.951,0.847c0.22,0.123,0.419,0.267,0.605,0.422c0.504,0.258,0.899,0.623,1.238,1.029
			c0.283,0.136,0.542,0.297,0.775,0.481c0.606,0.206,1.119,0.52,1.534,0.918c0.094,0.053,0.203,0.09,0.291,0.149
			c0.241,0.076,0.456,0.182,0.669,0.289c0.491,0.056,0.918,0.193,1.316,0.363c0.275-0.042,0.559-0.07,0.86-0.07
			c0.683,0,1.282,0.117,1.81,0.316c36.045-0.056,72.092-0.053,108.138,0.005c0.442-0.14,0.928-0.218,1.452-0.234
			c0.139-0.023,0.268-0.06,0.415-0.07c0.065-0.015,0.128-0.031,0.196-0.041c0.409-0.168,0.844-0.303,1.333-0.357
			c0.34-0.326,0.727-0.61,1.169-0.832c0.367-0.436,0.811-0.811,1.333-1.098c0.281-0.209,0.586-0.395,0.925-0.538
			c0.242-0.304,0.527-0.572,0.838-0.814c0.044-0.05,0.1-0.09,0.146-0.137c0.216-0.304,0.462-0.586,0.745-0.836
			c0.111-0.149,0.22-0.3,0.349-0.437c0.107-0.189,0.22-0.375,0.354-0.548c0.156-0.229,0.332-0.444,0.522-0.647
			c0.118-0.398,0.287-0.781,0.491-1.145c0.007-0.031,0.017-0.063,0.024-0.094c-0.004-1.005,0.252-2.025,0.764-2.902
			c-0.005-0.575,0.071-1.154,0.233-1.711c-0.002-0.081,0.01-0.161,0.012-0.242c-0.002-0.041,0.004-0.083,0.003-0.124
			C138.359,123.101,138.423,122.451,138.593,121.826z"/>
		<path fill-rule="evenodd" clip-rule="evenodd" fill="#AA0318" d="M131.519,134.503c-2.491,1.668-5.249,1.042-7.947,0.927
			c-1.049-0.312-2.229-0.43-2.599-1.754c-1.049-5.329-0.43-10.716-0.489-16.075c-0.092-8.279-0.226-16.567,0.1-24.84
			c0.096-2.45-0.373-5.96,4.039-5.565c1.824-0.03,3.645-0.039,5.331,0.824c2.368,0.978,2.882,2.976,2.897,5.25
			c0.082,12.235,0.059,24.471,0.012,36.705C132.856,131.616,132.501,133.152,131.519,134.503z"/>
		<path fill-rule="evenodd" clip-rule="evenodd" fill="#B00218" d="M110.597,83.646c3.207,0.89,6.414,1.779,9.621,2.668
			c-1.214,2.581-1.404,5.318-1.396,8.126c0.036,11.408,0.045,22.817-0.008,34.226c-0.01,2.152,0.337,4.438-1.34,6.26
			c-10.24,0.889-10.249,0.889-10.246-9.32c0.004-11.979-0.1-23.96,0.079-35.938C107.341,87.283,106.59,84.044,110.597,83.646z"/>
		<path fill-rule="evenodd" clip-rule="evenodd" fill="#B30217" d="M110.597,83.646c-2.311,0.952-1.937,2.988-1.938,4.854
			c-0.007,13.691,0.167,27.387-0.105,41.073c-0.086,4.299,1.278,5.815,5.404,5.189c1.14-0.172,2.327-0.03,3.492-0.034
			c1.466-1.156,2.932-1.155,4.398,0c0.575,0.233,1.149,0.468,1.725,0.702c-5.959,0.052-11.924-0.019-17.877,0.215
			c-2.423,0.096-3.3-0.716-3.554-3.045c-0.298-2.726-0.984-5.408-1.501-8.109c-2.357-13.666-1.152-27.418-0.958-41.144
			c0.017-1.162,0.166-2.352,1.089-3.245C104.047,81.283,107.322,82.464,110.597,83.646z"/>
		<path fill-rule="evenodd" clip-rule="evenodd" fill="#C50115" d="M65.733,134.735c-2.108-8.962-6.819-16.667-11.73-24.274
			c-1.128-2.979-0.36-6.092-0.638-9.132c1.072-2.2,2.417-4.087,5.102-4.432c1.611-0.708,3.243-0.462,4.877-0.102
			c5.903,2.003,8.517,7.054,11.175,12.063c0.784,6.844,0.285,13.711,0.301,20.565c0.013,5.453-0.521,5.823-6.11,5.732
			C67.706,135.139,66.652,135.381,65.733,134.735z"/>
		<path fill-rule="evenodd" clip-rule="evenodd" fill="#DB0013" d="M25.715,53.038c-1.764,0.196-3.478,0.078-5.063-0.826
			c-1.576-2.007-1.363-4.393-1.369-6.71c-0.025-11.223-0.032-22.445-0.003-33.667c0.021-7.973,0.412-8.287,8.565-7.39
			c1.311,1.424,1.292,3.222,1.3,4.965c0.057,12.868,0.143,25.736-0.079,38.601C29.033,50.045,29.992,53.504,25.715,53.038z"/>
		<path fill-rule="evenodd" clip-rule="evenodd" fill="#D50114" d="M40.032,57.425c-2.589-0.413-4.95-1.485-7.313-2.546
			c-0.495-15.596-0.186-31.194-0.14-46.792c0.004-1.317,0.23-2.626,1.221-3.645c7.177-0.779,7.646-0.431,7.674,6.526
			c0.053,13.418,0.042,26.836-0.007,40.254C41.458,53.369,41.774,55.653,40.032,57.425z"/>
		<path fill-rule="evenodd" clip-rule="evenodd" fill="#D80113" d="M33.899,4.58c0,15.157,0.019,30.314-0.028,45.471
			c-0.005,1.655,0.662,3.566-1.152,4.828c-2.43-0.251-4.777-0.815-7.003-1.84c2.939-0.507,1.984-2.851,1.991-4.548
			c0.062-14.635,0.036-29.271,0.036-43.907c0.591-0.518,1.313-0.423,2.013-0.435C31.135,4.318,32.59,3.747,33.899,4.58z"/>
		<path fill-rule="evenodd" clip-rule="evenodd" fill="#CF0114" d="M53.013,63.607c-2.867-1.464-5.734-2.929-8.601-4.393
			c-0.606-0.875-0.846-1.845-0.776-2.904c0.683-10.224,0.131-20.46,0.341-30.689c0.03-1.459,0.01-2.943,0.736-4.276
			c0.676-1.244,1.446-1.316,2.235-0.078c1.316,6.011,5.193,10.91,7.221,16.612c2.415,7.489,1.219,15.171,1.155,22.784
			C55.314,61.965,55.129,63.693,53.013,63.607z"/>
		<path fill-rule="evenodd" clip-rule="evenodd" fill="#E00012" d="M14.152,51.278c-1.04-0.063-2.08-0.128-3.12-0.192
			c-1.347-1.389-1.348-3.17-1.355-4.91c-0.048-11.491-0.052-22.98-0.004-34.471c0.008-1.908,0.257-3.768,0.995-5.543
			c1.763-1.934,4.058-2.345,6.52-2.278c1.421,1.358,1.388,3.164,1.396,4.898c0.064,12.544,0.13,25.089-0.044,37.632
			C18.504,49.042,18.802,52.548,14.152,51.278z"/>
		<path fill-rule="evenodd" clip-rule="evenodd" fill="#D20114" d="M46.948,21.266c-2.766-0.771-1.548,1.472-1.559,2.327
			c-0.099,7.554-0.065,15.11-0.054,22.666c0.006,4.342,0.204,8.695-0.924,12.955c-1.615-0.216-3.069-0.825-4.379-1.789
			c0.008-15.6,0.017-31.2,0.022-46.799c0.002-6.051-0.001-6.051-6.155-6.045c-1.466-0.004-2.932-0.009-4.397-0.014
			c-0.285-0.153-0.379-0.305-0.285-0.458c0.094-0.152,0.189-0.229,0.285-0.229c4.084-0.05,8.715-1.33,12.106,0.179
			c3.807,1.692,2.121,7.262,3.615,10.919C46.041,16.975,46.389,19.164,46.948,21.266z"/>
		<path fill-rule="evenodd" clip-rule="evenodd" fill="#B70217" d="M100.772,80.102c-0.044,14.797-0.088,29.592-0.132,44.388
			c-2.628-6.781-5.257-13.564-7.885-20.347c-2.21-7.714-1.205-15.551-0.85-23.355c0.099-2.184,1.15-3.576,3.622-3.247
			C97.421,78.095,99.199,78.888,100.772,80.102z"/>
		<path fill-rule="evenodd" clip-rule="evenodd" fill="#AB0318" d="M126.151,31.874c-3.247-0.791-6.129-2.301-8.711-4.404
			c-1.204-1.791-1.421-3.814-1.341-5.889c0.221-5.683-0.511-11.384,0.318-17.057c2.476-0.76,5.019-0.21,7.527-0.376
			c4.788,0.097,5.317,0.498,5.422,5.122c0.138,6.119,0.217,12.247-0.069,18.359C129.21,29.484,129.801,32.413,126.151,31.874z"/>
		<path fill-rule="evenodd" clip-rule="evenodd" fill="#A60419" d="M131.519,134.503c0-13.39-0.001-26.779,0.004-40.169
			c0.001-2.239,0.294-4.543-1.57-6.314c7.695-0.021,7.695-0.021,7.695,7.508c0,9.227,0.036,18.452-0.015,27.677
			C137.607,128.02,135.977,132.046,131.519,134.503z"/>
		<path fill-rule="evenodd" clip-rule="evenodd" fill="#C20216" d="M79.294,40.769c-3.071-2.378-4.912-5.664-6.657-9.021
			c-0.895-7.263-0.331-14.554-0.367-21.83c-0.01-2.049-0.131-4.047-0.527-6.042c0.434-0.049,0.869-0.149,1.302-0.14
			c8.529,0.182,6.231-1.46,8.37,6.926c0.617,5.791,0.564,11.586,0.096,17.378c-3.285,3.975-1.552,7.932,0.065,11.892
			C81.004,40.727,80.331,41.246,79.294,40.769z"/>
		<path fill-rule="evenodd" clip-rule="evenodd" fill="#DC0013" d="M19.914,108.134c2.814,0.971,5.793,1.569,8.139,3.601
			c-1.181,5.564-0.548,11.206-0.73,16.813c-0.07,2.13,0.316,4.361-1.144,6.245c-2.965,0.677-5.95,0.397-8.933,0.178
			c-1.461-1.357-1.327-3.182-1.354-4.914c-0.093-6.146,0.175-12.301-0.135-18.437C15.587,108.245,17.041,107.523,19.914,108.134z"/>
		<path fill-rule="evenodd" clip-rule="evenodd" fill="#E30113" d="M10.668,6.16c1.426,1.71,0.278,3.619,0.295,5.396
			c0.127,13.176,0.069,26.353,0.069,39.529c-4.128,0.887-5.513-0.556-5.36-4.937c0.346-9.945,0.125-19.909,0.102-29.865
			C5.765,12.097,6.973,8.537,10.668,6.16z"/>
		<path fill-rule="evenodd" clip-rule="evenodd" fill="#C50216" d="M71.743,3.877c0.42,0.9,2.073,0.347,2.044,1.869
			c-0.153,7.991-0.229,15.983-0.395,23.973c-0.014,0.681-0.492,1.353-0.755,2.03c-4.921-7.693-9.302-15.596-11.187-24.706
			c-0.603-2.916,0.1-3.62,2.859-3.36C66.771,3.915,69.264,3.825,71.743,3.877z"/>
		<path fill-rule="evenodd" clip-rule="evenodd" fill="#D80113" d="M25.986,134.727c0-6.442-0.003-12.885,0-19.327
			c0-1.604-0.252-3.362,2.066-3.665c4.182,2.021,7.545,5.021,10.359,8.675c0.048,3.798-0.687,7.544-0.684,11.345
			c0.001,2.485-1.319,3.71-3.939,3.427C31.199,134.9,28.546,135.614,25.986,134.727z"/>
		<path fill-rule="evenodd" clip-rule="evenodd" fill="#AC0318" d="M121.848,134.728c-1.466,0-2.932,0-4.398,0
			c0-14.735-0.004-29.472,0.005-44.207c0.001-1.985-0.538-4.37,2.763-4.207c1.527,0,3.043,0.057,4.405,0.882
			c-3.172,0.757-2.752,3.344-2.758,5.607C121.83,106.778,121.848,120.752,121.848,134.728z"/>
		<path fill-rule="evenodd" clip-rule="evenodd" fill="#C20317" d="M65.733,134.735c7.743,0.004,7.542-0.003,7.806-7.603
			c0.211-6.092-1.204-12.288,0.979-18.274c5.018,7.315,7.688,15.575,9.606,24.119c0.2,0.892,1.209,2.675-0.908,2.55
			C77.391,135.183,71.481,136.638,65.733,134.735z"/>
		<path fill-rule="evenodd" clip-rule="evenodd" fill="#A6041A" d="M129.774,4.719c4.509,0.45,7.762,4.512,7.842,10.269
			c0.122,8.769,0.032,17.541,0.032,27.359c-2.29-3.444-4.56-5.747-7.011-7.867c-0.887-5.09-0.389-10.224-0.383-15.333
			C130.26,14.325,129.955,9.527,129.774,4.719z"/>
		<path fill-rule="evenodd" clip-rule="evenodd" fill="#E00012" d="M19.914,108.134c-1.48-0.813-2.96-1.625-4.441-2.437
			c-1.162-0.902-3.139-0.849-3.357-2.859l-0.223,0.126l0.21-0.146c-2.841,0.615-2.35,3.04-2.416,4.899
			c-0.216,6.099-0.039,12.206-0.102,18.308c-0.026,2.509,0.229,4.93,1.351,7.205c0.419,0.456,0.861,0.845,1.32,1.185
			c0.074,0.052,0.151,0.101,0.221,0.156c0.5,0.169,0.936,0.412,1.306,0.716c1.018,0.388,2.142,0.474,3.412,0.146
			c0.102,0,0.202-0.076,0.302-0.229c0.101-0.154,0.002-0.309-0.296-0.465c-0.003-7.445,0.162-14.898-0.106-22.334
			C17.005,109.939,17.543,108.623,19.914,108.134z"/>
		<path fill-rule="evenodd" clip-rule="evenodd" fill="#DD0013" d="M29.503,3.88c0,0.229,0,0.458,0,0.687
			c-0.587,0.006-1.173,0.011-1.76,0.017c-0.73-0.003-1.474,0.086-2.186-0.025c-3.784-0.592-5.008,0.813-4.946,4.766
			c0.227,14.292,0.06,28.592,0.042,42.888c-2.199-0.074-4.422,0.009-6.499-0.934c3.045,0.21,3.064-1.772,3.058-4.002
			c-0.044-14.465-0.022-28.93-0.023-43.395C21.293,3.881,25.398,3.881,29.503,3.88z"/>
		<path fill-rule="evenodd" clip-rule="evenodd" fill="#BF0317" d="M86.507,93.776c-3.174-3.927-6.349-7.853-9.523-11.779
			c-1.169-4.136-0.271-8.295-0.07-12.436c0.064-1.309,0.782-2.511,2.458-2.499c2.822,1.984,5.645,3.968,8.466,5.952
			c0.521,5.616,0.166,11.242,0.138,16.862C87.969,91.308,87.826,92.789,86.507,93.776z"/>
		<path fill-rule="evenodd" clip-rule="evenodd" fill="#E30113" d="M12.103,102.818c-1.792-2.326-3.583-4.652-5.375-6.979
			c-0.842,10.118-1.037,19.838-0.731,29.541c0.062,1.952,0.787,3.771,2.01,5.303c0.335,0.271,0.619,0.589,0.85,0.941
			c0.612,0.599,1.307,1.14,2.08,1.605c0.032-8.637,0.047-17.274,0.112-25.911C11.06,105.761,10.598,104.045,12.103,102.818z"/>
		<path fill-rule="evenodd" clip-rule="evenodd" fill="#BB0317" d="M86.507,93.776c0.054-5.475,0.079-10.949,0.179-16.422
			c0.028-1.514-0.522-3.239,1.152-4.34c2.563,1.51,5.126,3.018,7.688,4.526c-1.727,0.712-2.364,1.602-2.49,3.847
			c-0.425,7.593,0.073,15.178-0.282,22.756C90.672,100.687,88.589,97.231,86.507,93.776z"/>
		<path fill-rule="evenodd" clip-rule="evenodd" fill="#B00218" d="M116.571,4.584c1.836,4.782,0.525,9.752,0.846,14.625
			c0.18,2.742,0.026,5.507,0.023,8.261c-3.141-1.484-5.693-3.692-7.847-6.388c-2.316-4.523-1.426-9.337-1.202-14.071
			c0.084-1.768,0.988-3.045,3.057-2.856C113.155,4.311,114.923,3.729,116.571,4.584z"/>
		<path fill-rule="evenodd" clip-rule="evenodd" fill="#C60216" d="M65.569,54.702c3.906,1.537,6.059,5.038,8.81,7.867
			c-0.834,3.28-0.395,6.637-0.62,9.952c-0.107,1.584,0.419,3.629-2.008,4.155c-2.672-1.987-5.345-3.975-8.017-5.962
			c-2.102-4.308-1.341-8.847-0.961-13.322C62.896,55.931,63.622,54.54,65.569,54.702z"/>
		<path fill-rule="evenodd" clip-rule="evenodd" fill="#C00417" d="M79.294,40.769c0.751-0.36,1.503-0.721,2.254-1.082
			c0.816-0.982,2.074-0.889,3.13-1.289c2.667-1.011,4.672-2.667,3.899-5.79c-0.691-2.791-2.854-3.788-5.675-3.375
			c-0.811,0.119-1.686,0.555-2.395-0.281c0.345-6.095-0.819-12.264,0.908-18.29c2.717,5.883,5.319,11.808,9.085,17.159
			c4.479,6.364,3.378,10.583-3.505,14.687c-1.656,0.445-3.311,0.513-4.962-0.025C80.712,42.565,79.962,41.733,79.294,40.769z"/>
		<path fill-rule="evenodd" clip-rule="evenodd" fill="#B40418" d="M116.571,4.584c-0.437-0.002-0.873-0.008-1.31-0.008
			c-5.722,0-5.729,0-5.724,5.593c0.004,3.637,0.036,7.275,0.055,10.914c-6.224-4.031-8.736-10.402-11.208-17.204
			c8.7,0,16.959,0,25.219,0c0.286,0.153,0.38,0.306,0.287,0.459c-0.094,0.153-0.188,0.23-0.285,0.23
			C121.261,4.573,118.916,4.578,116.571,4.584z"/>
		<path fill-rule="evenodd" clip-rule="evenodd" fill="#CB0216" d="M53.013,63.607c1.658-1.139,1.078-2.878,1.092-4.396
			c0.065-7.11,0.051-14.222,0.065-21.333c2.298,3.564,4.596,7.129,6.894,10.695c-0.596,4.597-0.228,9.218-0.374,13.827
			c-0.059,1.84,0.251,3.801-1.282,5.297C57.276,66.333,55.144,64.97,53.013,63.607z"/>
		<path fill-rule="evenodd" clip-rule="evenodd" fill="#D40316" d="M17.194,135.432c-0.003-0.231-0.001-0.463,0.005-0.693
			c2.929-0.004,5.858-0.007,8.787-0.011c3.202-0.088,7.081,0.912,9.43-0.548c2.764-1.72,0.864-5.923,1.036-9.022
			c0.108-1.946,1.2-3.217,1.96-4.748c4.203,4.161,6.754,9.246,8.792,15.022C36.895,135.432,27.044,135.432,17.194,135.432z"/>
		<path fill-rule="evenodd" clip-rule="evenodd" fill="#A90419" d="M123.605,4.568c0-0.23,0-0.459-0.001-0.689
			c2.114-0.142,4.283-0.687,6.17,0.84c0.751,1.21,1.788,2.209,1.773,3.861c-0.071,7.998-0.018,15.997-0.078,23.996
			c-0.005,0.636-0.542,1.27-0.833,1.904c-1.496-0.868-2.991-1.736-4.486-2.604c2.418-0.369,1.823-2.273,1.833-3.765
			c0.044-6.413-0.187-12.836,0.1-19.238C128.245,5.295,126.946,4.084,123.605,4.568z"/>
		<path fill-rule="evenodd" clip-rule="evenodd" fill="#C80216" d="M59.407,67.697c-0.001-5.23-0.028-10.458,0.015-15.688
			c0.011-1.351-0.525-3.069,1.641-3.436c1.679,1.913,3.61,3.641,4.506,6.129c-1.794,0.8-1.778,2.38-1.776,3.998
			c0.004,4.005-0.037,8.01-0.059,12.015C62.292,69.709,60.85,68.703,59.407,67.697z"/>
		<path fill-rule="evenodd" clip-rule="evenodd" fill="#C20317" d="M71.751,76.677c1.761-3.364,0.534-6.973,0.791-10.458
			c0.116-1.583,0.017-3.029,1.837-3.649c1.905,1.23,3.659,2.627,4.993,4.493c-1.853,1.119-1.473,2.958-1.497,4.662
			c-0.048,3.445,0.337,6.929-0.892,10.272C75.239,80.223,73.496,78.45,71.751,76.677z"/>
		<path fill-rule="evenodd" clip-rule="evenodd" fill="#C90619" d="M53.364,101.328c1.579,2.948,0.475,6.084,0.638,9.132
			c-0.831-0.384-0.887-1.11-0.834-1.884c-0.574-1.944-0.494-3.892-0.029-5.841C53.214,102.267,53.289,101.797,53.364,101.328z"/>
		<path fill-rule="evenodd" clip-rule="evenodd" fill="#E30113" d="M15.473,105.698c-1.968,0.045-3.629-0.271-3.357-2.859
			C13.234,103.791,14.354,104.744,15.473,105.698z"/>
		<path fill-rule="evenodd" clip-rule="evenodd" fill="#CD091C" d="M53.139,102.736c0.01,1.946,0.019,3.894,0.029,5.84
			C52.157,106.635,52.018,104.689,53.139,102.736z"/>
		<path fill-rule="evenodd" clip-rule="evenodd" fill="#CD091C" d="M63.343,96.795c-1.626,0.034-3.251,0.068-4.877,0.102
			C60.071,95.889,61.697,95.872,63.343,96.795z"/>
		<path fill-rule="evenodd" clip-rule="evenodd" fill="#C30D20" d="M82.034,42.484c1.653,0.008,3.307,0.016,4.961,0.025
			C85.337,43.531,83.683,43.604,82.034,42.484z"/>
		<path fill-rule="evenodd" clip-rule="evenodd" fill="#FDFAFA" d="M63.786,100.327c1.055,1.358,3.057,1.678,3.748,3.447
			c0.98,2.512,0.46,4.414-1.933,5.912c-2.525,1.581-4.968,3.105-7.838,0.934c-0.787-0.596-1.331-1.512-1.987-2.28
			c-0.521-1.443-0.398-2.9-0.088-4.36c0.45-1.614,1.586-2.696,2.851-3.68C60.29,99.86,62.04,99.819,63.786,100.327z"/>
		<path fill-rule="evenodd" clip-rule="evenodd" fill="#CD091C" d="M63.786,100.327c-1.75-0.009-3.499-0.019-5.248-0.027
			C60.294,99.144,62.043,99.086,63.786,100.327z"/>
		<path fill-rule="evenodd" clip-rule="evenodd" fill="#CD091C" d="M55.688,103.98c0.029,1.453,0.059,2.906,0.088,4.36
			C54.604,106.909,54.624,105.454,55.688,103.98z"/>
		<path fill-rule="evenodd" clip-rule="evenodd" fill="#FDFCFC" d="M80.507,28.952c2.636-1.282,5.337-1.66,7.599,0.513
			c1.562,1.502,2.591,3.384,1.624,5.839c-1.519,3.854-4.748,4.247-8.182,4.383C76.869,34.313,76.813,33.736,80.507,28.952z"/>
	</g>
</g>
</svg>
